<svg width="320" height="193" viewBox="0 0 320 193" fill="none" xmlns="http://www.w3.org/2000/svg">
<path opacity="0.8" d="M95.1628 134.22L100.315 132.4H103.115V152H99.8948V135.844L95.9468 136.964L95.1628 134.22ZM105.581 134.22L110.733 132.4H113.533V152H110.313V135.844L106.365 136.964L105.581 134.22ZM129.411 152H116.503V149.48L123.335 142.508C124.996 140.847 125.827 139.409 125.827 138.196C125.827 137.263 125.547 136.525 124.987 135.984C124.427 135.443 123.699 135.172 122.803 135.172C121.16 135.172 119.947 135.984 119.163 137.608L116.447 136.012C117.044 134.724 117.903 133.744 119.023 133.072C120.143 132.381 121.393 132.036 122.775 132.036C124.511 132.036 125.985 132.577 127.199 133.66C128.431 134.761 129.047 136.236 129.047 138.084C129.047 140.063 127.936 142.191 125.715 144.468L121.291 148.892H129.411V152ZM142.691 139.792H145.155C147.022 139.792 148.599 140.352 149.887 141.472C151.175 142.573 151.819 144.104 151.819 146.064C151.819 148.024 151.156 149.564 149.831 150.684C148.524 151.804 146.9 152.364 144.959 152.364C143.372 152.364 141.991 152 140.815 151.272C139.639 150.544 138.799 149.508 138.295 148.164L141.067 146.568C141.608 148.341 142.906 149.228 144.959 149.228C146.06 149.228 146.938 148.948 147.591 148.388C148.263 147.809 148.599 147.035 148.599 146.064C148.599 145.112 148.272 144.356 147.619 143.796C146.966 143.217 146.098 142.928 145.015 142.928H139.303L140.059 132.4H150.979V135.424H143.027L142.691 139.792ZM159.993 138.98H160.357C162.41 138.98 164.072 139.605 165.341 140.856C166.629 142.088 167.273 143.693 167.273 145.672C167.273 147.632 166.629 149.247 165.341 150.516C164.053 151.748 162.392 152.364 160.357 152.364C158.304 152.364 156.633 151.748 155.345 150.516C154.057 149.247 153.413 147.632 153.413 145.672C153.413 144.179 153.805 142.863 154.589 141.724L160.805 132.4H164.473L159.993 138.98ZM160.357 149.312C161.44 149.312 162.326 148.985 163.017 148.332C163.708 147.66 164.053 146.773 164.053 145.672C164.053 144.571 163.708 143.693 163.017 143.04C162.326 142.368 161.44 142.032 160.357 142.032C159.237 142.032 158.332 142.368 157.641 143.04C156.969 143.693 156.633 144.571 156.633 145.672C156.633 146.773 156.969 147.66 157.641 148.332C158.332 148.985 159.237 149.312 160.357 149.312ZM182.447 149.592C181.103 151.44 179.217 152.364 176.791 152.364C174.383 152.364 172.488 151.44 171.107 149.592C169.763 147.744 169.091 145.28 169.091 142.2C169.091 139.12 169.763 136.656 171.107 134.808C172.488 132.96 174.383 132.036 176.791 132.036C179.217 132.036 181.103 132.96 182.447 134.808C183.809 136.637 184.491 139.101 184.491 142.2C184.491 145.299 183.809 147.763 182.447 149.592ZM176.791 149.228C178.247 149.228 179.357 148.621 180.123 147.408C180.888 146.195 181.271 144.459 181.271 142.2C181.271 139.941 180.888 138.205 180.123 136.992C179.357 135.779 178.247 135.172 176.791 135.172C175.353 135.172 174.243 135.779 173.459 136.992C172.693 138.205 172.311 139.941 172.311 142.2C172.311 144.459 172.693 146.195 173.459 147.408C174.243 148.621 175.353 149.228 176.791 149.228ZM205.571 138H208.651V152H205.711V142.788L201.679 149.2H201.315L197.311 142.816V152H194.371V138H197.451L201.511 144.468L205.571 138ZM224.157 152H211.249V149.48L218.081 142.508C219.742 140.847 220.573 139.409 220.573 138.196C220.573 137.263 220.293 136.525 219.733 135.984C219.173 135.443 218.445 135.172 217.549 135.172C215.906 135.172 214.693 135.984 213.909 137.608L211.193 136.012C211.79 134.724 212.649 133.744 213.769 133.072C214.889 132.381 216.14 132.036 217.521 132.036C219.257 132.036 220.732 132.577 221.945 133.66C223.177 134.761 223.793 136.236 223.793 138.084C223.793 140.063 222.682 142.191 220.461 144.468L216.037 148.892H224.157V152Z" fill="#272D31"/>
<path d="M59.9445 188.72H61.3445V192.68H60.0245V190H51.8645V192.68H50.5445V188.72H51.7645C52.4445 187.827 52.7845 186.567 52.7845 184.94V180H59.9445V188.72ZM53.3645 188.72H58.6245V181.28H54.1045V184.94C54.1045 186.473 53.8579 187.733 53.3645 188.72ZM67.5708 179.76C69.0508 179.76 70.2441 180.287 71.1508 181.34C72.0708 182.38 72.5308 183.613 72.5308 185.04C72.5308 185.187 72.5174 185.393 72.4908 185.66H63.7108C63.8441 186.673 64.2708 187.48 64.9908 188.08C65.7241 188.667 66.6241 188.96 67.6908 188.96C68.4508 188.96 69.1041 188.807 69.6508 188.5C70.2108 188.18 70.6308 187.767 70.9108 187.26L72.0708 187.94C71.6308 188.647 71.0308 189.207 70.2708 189.62C69.5108 190.033 68.6441 190.24 67.6708 190.24C66.0974 190.24 64.8174 189.747 63.8308 188.76C62.8441 187.773 62.3508 186.52 62.3508 185C62.3508 183.507 62.8374 182.26 63.8108 181.26C64.7841 180.26 66.0374 179.76 67.5708 179.76ZM67.5708 181.04C66.5308 181.04 65.6574 181.353 64.9508 181.98C64.2574 182.593 63.8441 183.393 63.7108 184.38H71.1708C71.0374 183.327 70.6308 182.507 69.9508 181.92C69.2708 181.333 68.4774 181.04 67.5708 181.04ZM81.4398 180V181.28H77.8998V190H76.5798V181.28H73.0398V180H81.4398ZM91.2578 180H92.5778V190H91.2578V188.04C90.3378 189.507 88.9911 190.24 87.2178 190.24C85.7911 190.24 84.5711 189.733 83.5578 188.72C82.5578 187.707 82.0578 186.467 82.0578 185C82.0578 183.533 82.5578 182.293 83.5578 181.28C84.5711 180.267 85.7911 179.76 87.2178 179.76C88.9911 179.76 90.3378 180.493 91.2578 181.96V180ZM84.5178 187.82C85.2778 188.58 86.2111 188.96 87.3178 188.96C88.4245 188.96 89.3578 188.58 90.1178 187.82C90.8778 187.047 91.2578 186.107 91.2578 185C91.2578 183.893 90.8778 182.96 90.1178 182.2C89.3578 181.427 88.4245 181.04 87.3178 181.04C86.2111 181.04 85.2778 181.427 84.5178 182.2C83.7578 182.96 83.3778 183.893 83.3778 185C83.3778 186.107 83.7578 187.047 84.5178 187.82ZM103.573 180V190H102.253V181.28H97.7327V185.74C97.7327 187.407 97.4127 188.553 96.7727 189.18C96.146 189.807 95.2793 190.08 94.1727 190V188.76C94.9327 188.84 95.4927 188.66 95.8527 188.22C96.226 187.78 96.4127 186.953 96.4127 185.74V180H103.573ZM110.429 183.8C111.362 183.8 112.149 184.093 112.789 184.68C113.442 185.253 113.769 185.993 113.769 186.9C113.769 187.807 113.442 188.553 112.789 189.14C112.149 189.713 111.362 190 110.429 190H106.369V180H107.689V183.8H110.429ZM110.429 188.72C110.989 188.72 111.462 188.553 111.849 188.22C112.249 187.887 112.449 187.447 112.449 186.9C112.449 186.353 112.249 185.913 111.849 185.58C111.462 185.247 110.989 185.08 110.429 185.08H107.689V188.72H110.429ZM122.843 180H124.163V190H122.843V185.64H117.083V190H115.763V180H117.083V184.36H122.843V180ZM135.335 188.74C134.321 189.74 133.081 190.24 131.615 190.24C130.148 190.24 128.901 189.74 127.875 188.74C126.861 187.727 126.355 186.48 126.355 185C126.355 183.52 126.861 182.28 127.875 181.28C128.901 180.267 130.148 179.76 131.615 179.76C133.081 179.76 134.321 180.267 135.335 181.28C136.361 182.28 136.875 183.52 136.875 185C136.875 186.48 136.361 187.727 135.335 188.74ZM128.815 187.82C129.575 188.58 130.508 188.96 131.615 188.96C132.721 188.96 133.655 188.58 134.415 187.82C135.175 187.047 135.555 186.107 135.555 185C135.555 183.893 135.175 182.96 134.415 182.2C133.655 181.427 132.721 181.04 131.615 181.04C130.508 181.04 129.575 181.427 128.815 182.2C128.055 182.96 127.675 183.893 127.675 185C127.675 186.107 128.055 187.047 128.815 187.82ZM152.464 188.74C151.45 189.74 150.21 190.24 148.744 190.24C147.277 190.24 146.03 189.74 145.004 188.74C143.99 187.727 143.484 186.48 143.484 185C143.484 183.52 143.99 182.28 145.004 181.28C146.03 180.267 147.277 179.76 148.744 179.76C150.21 179.76 151.45 180.267 152.464 181.28C153.49 182.28 154.004 183.52 154.004 185C154.004 186.48 153.49 187.727 152.464 188.74ZM145.944 187.82C146.704 188.58 147.637 188.96 148.744 188.96C149.85 188.96 150.784 188.58 151.544 187.82C152.304 187.047 152.684 186.107 152.684 185C152.684 183.893 152.304 182.96 151.544 182.2C150.784 181.427 149.85 181.04 148.744 181.04C147.637 181.04 146.704 181.427 145.944 182.2C145.184 182.96 144.804 183.893 144.804 185C144.804 186.107 145.184 187.047 145.944 187.82ZM160.653 190.24C159.213 190.24 158.013 189.767 157.053 188.82C156.093 187.86 155.613 186.62 155.613 185.1C155.613 183.393 155.866 182.087 156.373 181.18C156.879 180.26 157.906 179.427 159.453 178.68C159.746 178.533 160.133 178.36 160.613 178.16C161.106 177.96 161.473 177.8 161.713 177.68C161.966 177.56 162.239 177.407 162.533 177.22C162.826 177.02 163.046 176.8 163.193 176.56C163.339 176.32 163.433 176.033 163.473 175.7L164.513 176.3C164.459 176.62 164.353 176.92 164.193 177.2C164.033 177.48 163.866 177.707 163.693 177.88C163.533 178.053 163.273 178.247 162.913 178.46C162.566 178.66 162.293 178.807 162.093 178.9C161.906 178.98 161.573 179.12 161.093 179.32C160.626 179.52 160.313 179.653 160.153 179.72C159.219 180.12 158.533 180.54 158.093 180.98C157.653 181.407 157.339 181.967 157.153 182.66C157.606 182.06 158.179 181.62 158.873 181.34C159.579 181.047 160.266 180.9 160.933 180.9C162.266 180.9 163.366 181.34 164.233 182.22C165.113 183.087 165.553 184.2 165.553 185.56C165.553 186.907 165.086 188.027 164.153 188.92C163.233 189.8 162.066 190.24 160.653 190.24ZM160.653 188.92C161.693 188.92 162.546 188.607 163.213 187.98C163.893 187.34 164.233 186.533 164.233 185.56C164.233 184.573 163.913 183.767 163.273 183.14C162.646 182.5 161.806 182.18 160.753 182.18C159.806 182.18 158.946 182.48 158.173 183.08C157.399 183.667 157.013 184.453 157.013 185.44C157.013 186.453 157.359 187.287 158.053 187.94C158.759 188.593 159.626 188.92 160.653 188.92ZM172.22 190.24C170.713 190.24 169.46 189.74 168.46 188.74C167.46 187.727 166.96 186.48 166.96 185C166.96 183.52 167.46 182.28 168.46 181.28C169.46 180.267 170.713 179.76 172.22 179.76C173.207 179.76 174.093 180 174.88 180.48C175.667 180.947 176.24 181.58 176.6 182.38L175.52 183C175.253 182.4 174.82 181.927 174.22 181.58C173.633 181.22 172.967 181.04 172.22 181.04C171.113 181.04 170.18 181.427 169.42 182.2C168.66 182.96 168.28 183.893 168.28 185C168.28 186.107 168.66 187.047 169.42 187.82C170.18 188.58 171.113 188.96 172.22 188.96C172.967 188.96 173.633 188.787 174.22 188.44C174.807 188.08 175.267 187.6 175.6 187L176.7 187.64C176.287 188.44 175.68 189.073 174.88 189.54C174.08 190.007 173.193 190.24 172.22 190.24ZM186.6 180V190H185.28V181.28H180.76V185.74C180.76 187.407 180.44 188.553 179.8 189.18C179.173 189.807 178.307 190.08 177.2 190V188.76C177.96 188.84 178.52 188.66 178.88 188.22C179.253 187.78 179.44 186.953 179.44 185.74V180H186.6ZM194.016 179.76C195.496 179.76 196.689 180.287 197.596 181.34C198.516 182.38 198.976 183.613 198.976 185.04C198.976 185.187 198.963 185.393 198.936 185.66H190.156C190.289 186.673 190.716 187.48 191.436 188.08C192.169 188.667 193.069 188.96 194.136 188.96C194.896 188.96 195.549 188.807 196.096 188.5C196.656 188.18 197.076 187.767 197.356 187.26L198.516 187.94C198.076 188.647 197.476 189.207 196.716 189.62C195.956 190.033 195.089 190.24 194.116 190.24C192.543 190.24 191.263 189.747 190.276 188.76C189.289 187.773 188.796 186.52 188.796 185C188.796 183.507 189.283 182.26 190.256 181.26C191.229 180.26 192.483 179.76 194.016 179.76ZM194.016 181.04C192.976 181.04 192.103 181.353 191.396 181.98C190.703 182.593 190.289 183.393 190.156 184.38H197.616C197.483 183.327 197.076 182.507 196.396 181.92C195.716 181.333 194.923 181.04 194.016 181.04ZM209.085 188.72H210.485V192.68H209.165V190H201.005V192.68H199.685V188.72H200.905C201.585 187.827 201.925 186.567 201.925 184.94V180H209.085V188.72ZM202.505 188.72H207.765V181.28H203.245V184.94C203.245 186.473 202.998 187.733 202.505 188.72ZM220.471 188.74C219.458 189.74 218.218 190.24 216.751 190.24C215.285 190.24 214.038 189.74 213.011 188.74C211.998 187.727 211.491 186.48 211.491 185C211.491 183.52 211.998 182.28 213.011 181.28C214.038 180.267 215.285 179.76 216.751 179.76C218.218 179.76 219.458 180.267 220.471 181.28C221.498 182.28 222.011 183.52 222.011 185C222.011 186.48 221.498 187.727 220.471 188.74ZM213.951 187.82C214.711 188.58 215.645 188.96 216.751 188.96C217.858 188.96 218.791 188.58 219.551 187.82C220.311 187.047 220.691 186.107 220.691 185C220.691 183.893 220.311 182.96 219.551 182.2C218.791 181.427 217.858 181.04 216.751 181.04C215.645 181.04 214.711 181.427 213.951 182.2C213.191 182.96 212.811 183.893 212.811 185C212.811 186.107 213.191 187.047 213.951 187.82ZM230.58 184.86C231.674 185.26 232.22 186.04 232.22 187.2C232.22 188.013 231.947 188.687 231.4 189.22C230.867 189.74 230.094 190 229.08 190H224.22V180H228.68C229.654 180 230.407 180.253 230.94 180.76C231.474 181.253 231.74 181.893 231.74 182.68C231.74 183.68 231.354 184.407 230.58 184.86ZM228.68 181.28H225.54V184.32H228.68C229.84 184.32 230.42 183.8 230.42 182.76C230.42 182.293 230.267 181.933 229.96 181.68C229.667 181.413 229.24 181.28 228.68 181.28ZM229.08 188.72C229.667 188.72 230.114 188.58 230.42 188.3C230.74 188.02 230.9 187.627 230.9 187.12C230.9 186.653 230.74 186.287 230.42 186.02C230.114 185.74 229.667 185.6 229.08 185.6H225.54V188.72H229.08ZM242.82 180H244.14V190H242.82V188.04C241.9 189.507 240.554 190.24 238.78 190.24C237.354 190.24 236.134 189.733 235.12 188.72C234.12 187.707 233.62 186.467 233.62 185C233.62 183.533 234.12 182.293 235.12 181.28C236.134 180.267 237.354 179.76 238.78 179.76C240.554 179.76 241.9 180.493 242.82 181.96V180ZM236.08 187.82C236.84 188.58 237.774 188.96 238.88 188.96C239.987 188.96 240.92 188.58 241.68 187.82C242.44 187.047 242.82 186.107 242.82 185C242.82 183.893 242.44 182.96 241.68 182.2C240.92 181.427 239.987 181.04 238.88 181.04C237.774 181.04 236.84 181.427 236.08 182.2C235.32 182.96 234.94 183.893 234.94 185C234.94 186.107 235.32 187.047 236.08 187.82ZM254.015 180H255.335V190H254.015V185.64H248.255V190H246.935V180H248.255V184.36H254.015V180ZM266.507 188.74C265.493 189.74 264.253 190.24 262.787 190.24C261.32 190.24 260.073 189.74 259.047 188.74C258.033 187.727 257.527 186.48 257.527 185C257.527 183.52 258.033 182.28 259.047 181.28C260.073 180.267 261.32 179.76 262.787 179.76C264.253 179.76 265.493 180.267 266.507 181.28C267.533 182.28 268.047 183.52 268.047 185C268.047 186.48 267.533 187.727 266.507 188.74ZM259.987 187.82C260.747 188.58 261.68 188.96 262.787 188.96C263.893 188.96 264.827 188.58 265.587 187.82C266.347 187.047 266.727 186.107 266.727 185C266.727 183.893 266.347 182.96 265.587 182.2C264.827 181.427 263.893 181.04 262.787 181.04C261.68 181.04 260.747 181.427 259.987 182.2C259.227 182.96 258.847 183.893 258.847 185C258.847 186.107 259.227 187.047 259.987 187.82Z" fill="#5F6970"/>
<rect x="115" width="90" height="90" rx="12" fill="#3E62AC"/>
<path d="M170.554 53.0798L178.049 60.5733L175.573 63.0495L168.08 55.5543C165.292 57.7894 161.824 59.0051 158.25 59C149.556 59 142.5 51.944 142.5 43.25C142.5 34.556 149.556 27.5 158.25 27.5C166.944 27.5 174 34.556 174 43.25C174.005 46.8235 172.789 50.2915 170.554 53.0798ZM167.044 51.7812C169.265 49.4973 170.505 46.4358 170.5 43.25C170.5 36.481 165.017 31 158.25 31C151.481 31 146 36.481 146 43.25C146 50.0173 151.481 55.5 158.25 55.5C161.436 55.505 164.497 54.2647 166.781 52.0437L167.044 51.7812V51.7812ZM160.312 36.558C159.795 36.7911 159.344 37.1459 158.995 37.592C158.646 38.0381 158.411 38.5621 158.309 39.1191C158.208 39.6762 158.243 40.2495 158.411 40.7901C158.58 41.3306 158.877 41.8222 159.277 42.2225C159.678 42.6229 160.169 42.9202 160.71 43.0888C161.25 43.2575 161.824 43.2925 162.381 43.1908C162.938 43.0891 163.462 42.8538 163.908 42.505C164.354 42.1563 164.709 41.7045 164.942 41.1885C165.402 42.6823 165.349 44.2871 164.791 45.7472C164.233 47.2072 163.202 48.4385 161.863 49.2448C160.524 50.0511 158.954 50.3861 157.402 50.1964C155.851 50.0066 154.407 49.3031 153.302 48.1979C152.197 47.0927 151.493 45.6493 151.304 44.0978C151.114 42.5464 151.449 40.976 152.255 39.637C153.062 38.298 154.293 37.2674 155.753 36.7094C157.213 36.1514 158.818 36.0981 160.312 36.558V36.558Z" fill="white"/>
</svg>
