<svg width="320" height="195" viewBox="0 0 320 195" fill="none" xmlns="http://www.w3.org/2000/svg">
<path opacity="0.8" d="M84.5123 152H71.6043V149.48L78.4363 142.508C80.0977 140.847 80.9283 139.409 80.9283 138.196C80.9283 137.263 80.6483 136.525 80.0883 135.984C79.5283 135.443 78.8003 135.172 77.9043 135.172C76.2617 135.172 75.0483 135.984 74.2643 137.608L71.5483 136.012C72.1457 134.724 73.0043 133.744 74.1243 133.072C75.2443 132.381 76.495 132.036 77.8763 132.036C79.6123 132.036 81.087 132.577 82.3003 133.66C83.5323 134.761 84.1483 136.236 84.1483 138.084C84.1483 140.063 83.0377 142.191 80.8163 144.468L76.3923 148.892H84.5123V152ZM99.3326 152H86.4246V149.48L93.2566 142.508C94.918 140.847 95.7486 139.409 95.7486 138.196C95.7486 137.263 95.4686 136.525 94.9086 135.984C94.3486 135.443 93.6206 135.172 92.7246 135.172C91.082 135.172 89.8686 135.984 89.0846 137.608L86.3686 136.012C86.966 134.724 87.8246 133.744 88.9446 133.072C90.0646 132.381 91.3153 132.036 92.6966 132.036C94.4326 132.036 95.9073 132.577 97.1206 133.66C98.3526 134.761 98.9686 136.236 98.9686 138.084C98.9686 140.063 97.858 142.191 95.6366 144.468L91.2126 148.892H99.3326V152ZM105.34 139.792H107.804C109.67 139.792 111.248 140.352 112.536 141.472C113.824 142.573 114.468 144.104 114.468 146.064C114.468 148.024 113.805 149.564 112.48 150.684C111.173 151.804 109.549 152.364 107.608 152.364C106.021 152.364 104.64 152 103.464 151.272C102.288 150.544 101.448 149.508 100.944 148.164L103.716 146.568C104.257 148.341 105.554 149.228 107.608 149.228C108.709 149.228 109.586 148.948 110.24 148.388C110.912 147.809 111.248 147.035 111.248 146.064C111.248 145.112 110.921 144.356 110.268 143.796C109.614 143.217 108.746 142.928 107.664 142.928H101.952L102.708 132.4H113.628V135.424H105.676L105.34 139.792ZM129.4 149.592C128.056 151.44 126.17 152.364 123.744 152.364C121.336 152.364 119.441 151.44 118.06 149.592C116.716 147.744 116.044 145.28 116.044 142.2C116.044 139.12 116.716 136.656 118.06 134.808C119.441 132.96 121.336 132.036 123.744 132.036C126.17 132.036 128.056 132.96 129.4 134.808C130.762 136.637 131.444 139.101 131.444 142.2C131.444 145.299 130.762 147.763 129.4 149.592ZM123.744 149.228C125.2 149.228 126.31 148.621 127.076 147.408C127.841 146.195 128.224 144.459 128.224 142.2C128.224 139.941 127.841 138.205 127.076 136.992C126.31 135.779 125.2 135.172 123.744 135.172C122.306 135.172 121.196 135.779 120.412 136.992C119.646 138.205 119.264 139.941 119.264 142.2C119.264 144.459 119.646 146.195 120.412 147.408C121.196 148.621 122.306 149.228 123.744 149.228ZM147.317 144.86L153.701 152H150.089L144.349 145.532V152H141.325V138H144.349V144.188L149.781 138H153.477L147.317 144.86ZM165.423 144.804C166.804 145.457 167.495 146.531 167.495 148.024C167.495 149.219 167.084 150.18 166.263 150.908C165.46 151.636 164.34 152 162.903 152H155.735V138H162.343C163.761 138 164.872 138.355 165.675 139.064C166.477 139.773 166.879 140.707 166.879 141.864C166.879 143.189 166.393 144.169 165.423 144.804ZM162.119 140.576H158.619V143.684H162.119C163.351 143.684 163.967 143.161 163.967 142.116C163.967 141.089 163.351 140.576 162.119 140.576ZM158.619 149.368H162.623C163.892 149.368 164.527 148.817 164.527 147.716C164.527 147.231 164.359 146.857 164.023 146.596C163.687 146.316 163.22 146.176 162.623 146.176H158.619V149.368ZM181.041 139.988V138H184.065V152H181.041V149.984C179.903 151.571 178.269 152.364 176.141 152.364C174.219 152.364 172.576 151.655 171.213 150.236C169.851 148.817 169.169 147.072 169.169 145C169.169 142.928 169.851 141.183 171.213 139.764C172.576 138.345 174.219 137.636 176.141 137.636C178.269 137.636 179.903 138.42 181.041 139.988ZM173.453 148.22C174.293 149.06 175.348 149.48 176.617 149.48C177.887 149.48 178.941 149.06 179.781 148.22C180.621 147.361 181.041 146.288 181.041 145C181.041 143.712 180.621 142.648 179.781 141.808C178.941 140.949 177.887 140.52 176.617 140.52C175.348 140.52 174.293 140.949 173.453 141.808C172.613 142.648 172.193 143.712 172.193 145C172.193 146.269 172.613 147.343 173.453 148.22ZM195.514 137.636C197.418 137.636 199.061 138.355 200.442 139.792C201.805 141.211 202.486 142.947 202.486 145C202.486 147.072 201.805 148.817 200.442 150.236C199.08 151.655 197.437 152.364 195.514 152.364C193.405 152.364 191.772 151.58 190.614 150.012V157.6H187.59V138H190.614V140.016C191.753 138.429 193.386 137.636 195.514 137.636ZM191.874 148.22C192.714 149.06 193.769 149.48 195.038 149.48C196.308 149.48 197.362 149.06 198.202 148.22C199.042 147.361 199.462 146.288 199.462 145C199.462 143.712 199.042 142.648 198.202 141.808C197.362 140.949 196.308 140.52 195.038 140.52C193.769 140.52 192.714 140.949 191.874 141.808C191.034 142.648 190.614 143.712 190.614 145C190.614 146.269 191.034 147.343 191.874 148.22ZM203.196 138H215.376V140.912H210.812V152H207.788V140.912H203.196V138ZM220.39 146.876L227.558 138H229.882V152H226.914V143.096L219.746 152H217.422V138H220.39V146.876ZM241.315 137.636C243.219 137.636 244.862 138.355 246.243 139.792C247.606 141.211 248.287 142.947 248.287 145C248.287 147.072 247.606 148.817 246.243 150.236C244.88 151.655 243.238 152.364 241.315 152.364C239.206 152.364 237.572 151.58 236.415 150.012V157.6H233.391V138H236.415V140.016C237.554 138.429 239.187 137.636 241.315 137.636ZM237.675 148.22C238.515 149.06 239.57 149.48 240.839 149.48C242.108 149.48 243.163 149.06 244.003 148.22C244.843 147.361 245.263 146.288 245.263 145C245.263 143.712 244.843 142.648 244.003 141.808C243.163 140.949 242.108 140.52 240.839 140.52C239.57 140.52 238.515 140.949 237.675 141.808C236.835 142.648 236.415 143.712 236.415 145C236.415 146.269 236.835 147.343 237.675 148.22Z" fill="#272D31"/>
<path d="M59.4207 180V190H58.1007V182.02L54.6007 187.7H54.4407L50.9407 182.02V190H49.6207V180H51.1407L54.5207 185.48L57.9007 180H59.4207ZM66.2784 183.8C67.2117 183.8 67.9984 184.093 68.6384 184.68C69.2917 185.253 69.6184 185.993 69.6184 186.9C69.6184 187.807 69.2917 188.553 68.6384 189.14C67.9984 189.713 67.2117 190 66.2784 190H62.2184V180H63.5384V183.8H66.2784ZM71.0184 180H72.3384V190H71.0184V180ZM66.2784 188.72C66.8384 188.72 67.3117 188.553 67.6984 188.22C68.0984 187.887 68.2984 187.447 68.2984 186.9C68.2984 186.353 68.0984 185.913 67.6984 185.58C67.3117 185.247 66.8384 185.08 66.2784 185.08H63.5384V188.72H66.2784ZM87.348 180H88.748L84.468 190.92C84.0814 191.907 83.528 192.68 82.808 193.24C82.1014 193.813 81.308 194.067 80.428 194V192.76C81.628 192.893 82.5414 192.2 83.168 190.68L83.428 190.06L78.948 180H80.348L84.108 188.38L87.348 180ZM94.6127 190.24C93.1061 190.24 91.8527 189.74 90.8527 188.74C89.8527 187.727 89.3527 186.48 89.3527 185C89.3527 183.52 89.8527 182.28 90.8527 181.28C91.8527 180.267 93.1061 179.76 94.6127 179.76C95.5994 179.76 96.4861 180 97.2727 180.48C98.0594 180.947 98.6327 181.58 98.9927 182.38L97.9127 183C97.6461 182.4 97.2127 181.927 96.6127 181.58C96.0261 181.22 95.3594 181.04 94.6127 181.04C93.5061 181.04 92.5727 181.427 91.8127 182.2C91.0527 182.96 90.6727 183.893 90.6727 185C90.6727 186.107 91.0527 187.047 91.8127 187.82C92.5727 188.58 93.5061 188.96 94.6127 188.96C95.3594 188.96 96.0261 188.787 96.6127 188.44C97.1994 188.08 97.6594 187.6 97.9927 187L99.0927 187.64C98.6794 188.44 98.0727 189.073 97.2727 189.54C96.4727 190.007 95.5861 190.24 94.6127 190.24ZM109.388 180V190H108.068V181.28H102.308V190H100.988V180H109.388ZM116.799 179.76C118.279 179.76 119.473 180.287 120.379 181.34C121.299 182.38 121.759 183.613 121.759 185.04C121.759 185.187 121.746 185.393 121.719 185.66H112.939C113.073 186.673 113.499 187.48 114.219 188.08C114.953 188.667 115.853 188.96 116.919 188.96C117.679 188.96 118.333 188.807 118.879 188.5C119.439 188.18 119.859 187.767 120.139 187.26L121.299 187.94C120.859 188.647 120.259 189.207 119.499 189.62C118.739 190.033 117.873 190.24 116.899 190.24C115.326 190.24 114.046 189.747 113.059 188.76C112.073 187.773 111.579 186.52 111.579 185C111.579 183.507 112.066 182.26 113.039 181.26C114.013 180.26 115.266 179.76 116.799 179.76ZM116.799 181.04C115.759 181.04 114.886 181.353 114.179 181.98C113.486 182.593 113.073 183.393 112.939 184.38H120.399C120.266 183.327 119.859 182.507 119.179 181.92C118.499 181.333 117.706 181.04 116.799 181.04ZM135.939 180H137.259V190H123.859V180H125.179V188.72H129.899V180H131.219V188.72H135.939V180ZM147.13 180H148.45V190H147.13V185.64H141.37V190H140.05V180H141.37V184.36H147.13V180ZM159.622 188.74C158.608 189.74 157.368 190.24 155.902 190.24C154.435 190.24 153.188 189.74 152.162 188.74C151.148 187.727 150.642 186.48 150.642 185C150.642 183.52 151.148 182.28 152.162 181.28C153.188 180.267 154.435 179.76 155.902 179.76C157.368 179.76 158.608 180.267 159.622 181.28C160.648 182.28 161.162 183.52 161.162 185C161.162 186.48 160.648 187.727 159.622 188.74ZM153.102 187.82C153.862 188.58 154.795 188.96 155.902 188.96C157.008 188.96 157.942 188.58 158.702 187.82C159.462 187.047 159.842 186.107 159.842 185C159.842 183.893 159.462 182.96 158.702 182.2C157.942 181.427 157.008 181.04 155.902 181.04C154.795 181.04 153.862 181.427 153.102 182.2C152.342 182.96 151.962 183.893 151.962 185C151.962 186.107 152.342 187.047 153.102 187.82ZM176.771 180V190H175.451V181.28H169.691V190H168.371V180H176.771ZM184.922 179.76C186.349 179.76 187.562 180.267 188.562 181.28C189.575 182.293 190.082 183.533 190.082 185C190.082 186.467 189.575 187.707 188.562 188.72C187.562 189.733 186.349 190.24 184.922 190.24C183.149 190.24 181.802 189.507 180.882 188.04V194H179.562V180H180.882V181.96C181.802 180.493 183.149 179.76 184.922 179.76ZM182.022 187.82C182.782 188.58 183.715 188.96 184.822 188.96C185.929 188.96 186.862 188.58 187.622 187.82C188.382 187.047 188.762 186.107 188.762 185C188.762 183.893 188.382 182.96 187.622 182.2C186.862 181.427 185.929 181.04 184.822 181.04C183.715 181.04 182.782 181.427 182.022 182.2C181.262 182.96 180.882 183.893 180.882 185C180.882 186.107 181.262 187.047 182.022 187.82ZM200.657 188.74C199.644 189.74 198.404 190.24 196.937 190.24C195.47 190.24 194.224 189.74 193.197 188.74C192.184 187.727 191.677 186.48 191.677 185C191.677 183.52 192.184 182.28 193.197 181.28C194.224 180.267 195.47 179.76 196.937 179.76C198.404 179.76 199.644 180.267 200.657 181.28C201.684 182.28 202.197 183.52 202.197 185C202.197 186.48 201.684 187.727 200.657 188.74ZM194.137 187.82C194.897 188.58 195.83 188.96 196.937 188.96C198.044 188.96 198.977 188.58 199.737 187.82C200.497 187.047 200.877 186.107 200.877 185C200.877 183.893 200.497 182.96 199.737 182.2C198.977 181.427 198.044 181.04 196.937 181.04C195.83 181.04 194.897 181.427 194.137 182.2C193.377 182.96 192.997 183.893 192.997 185C192.997 186.107 193.377 187.047 194.137 187.82ZM210.766 184.86C211.859 185.26 212.406 186.04 212.406 187.2C212.406 188.013 212.133 188.687 211.586 189.22C211.053 189.74 210.279 190 209.266 190H204.406V180H208.866C209.839 180 210.593 180.253 211.126 180.76C211.659 181.253 211.926 181.893 211.926 182.68C211.926 183.68 211.539 184.407 210.766 184.86ZM208.866 181.28H205.726V184.32H208.866C210.026 184.32 210.606 183.8 210.606 182.76C210.606 182.293 210.453 181.933 210.146 181.68C209.853 181.413 209.426 181.28 208.866 181.28ZM209.266 188.72C209.853 188.72 210.299 188.58 210.606 188.3C210.926 188.02 211.086 187.627 211.086 187.12C211.086 186.653 210.926 186.287 210.606 186.02C210.299 185.74 209.853 185.6 209.266 185.6H205.726V188.72H209.266ZM219.026 179.76C220.506 179.76 221.699 180.287 222.606 181.34C223.526 182.38 223.986 183.613 223.986 185.04C223.986 185.187 223.973 185.393 223.946 185.66H215.166C215.299 186.673 215.726 187.48 216.446 188.08C217.179 188.667 218.079 188.96 219.146 188.96C219.906 188.96 220.559 188.807 221.106 188.5C221.666 188.18 222.086 187.767 222.366 187.26L223.526 187.94C223.086 188.647 222.486 189.207 221.726 189.62C220.966 190.033 220.099 190.24 219.126 190.24C217.553 190.24 216.273 189.747 215.286 188.76C214.299 187.773 213.806 186.52 213.806 185C213.806 183.507 214.293 182.26 215.266 181.26C216.239 180.26 217.493 179.76 219.026 179.76ZM219.026 181.04C217.986 181.04 217.113 181.353 216.406 181.98C215.713 182.593 215.299 183.393 215.166 184.38H222.626C222.493 183.327 222.086 182.507 221.406 181.92C220.726 181.333 219.933 181.04 219.026 181.04ZM231.446 179.76C232.872 179.76 234.086 180.267 235.086 181.28C236.099 182.293 236.606 183.533 236.606 185C236.606 186.467 236.099 187.707 235.086 188.72C234.086 189.733 232.872 190.24 231.446 190.24C229.672 190.24 228.326 189.507 227.406 188.04V194H226.086V180H227.406V181.96C228.326 180.493 229.672 179.76 231.446 179.76ZM228.546 187.82C229.306 188.58 230.239 188.96 231.346 188.96C232.452 188.96 233.386 188.58 234.146 187.82C234.906 187.047 235.286 186.107 235.286 185C235.286 183.893 234.906 182.96 234.146 182.2C233.386 181.427 232.452 181.04 231.346 181.04C230.239 181.04 229.306 181.427 228.546 182.2C227.786 182.96 227.406 183.893 227.406 185C227.406 186.107 227.786 187.047 228.546 187.82ZM246.08 180H247.2V190H245.88V182.3L239.92 190H238.8V180H240.12V187.7L246.08 180ZM258.192 180V190H256.872V181.28H252.352V185.74C252.352 187.407 252.032 188.553 251.392 189.18C250.765 189.807 249.898 190.08 248.792 190V188.76C249.552 188.84 250.112 188.66 250.472 188.22C250.845 187.78 251.032 186.953 251.032 185.74V180H258.192ZM268.268 180H269.388V190H268.068V182.3L262.108 190H260.988V180H262.308V187.7L268.268 180Z" fill="#5F6970"/>
<rect x="115" width="90" height="90" rx="12" fill="#35909C"/>
<path d="M175.75 57.25H179.25V60.75H140.75V57.25H144.25V31C144.25 30.5359 144.434 30.0908 144.763 29.7626C145.091 29.4344 145.536 29.25 146 29.25H163.5C163.964 29.25 164.409 29.4344 164.737 29.7626C165.066 30.0908 165.25 30.5359 165.25 31V57.25H168.75V39.75H174C174.464 39.75 174.909 39.9344 175.237 40.2626C175.566 40.5908 175.75 41.0359 175.75 41.5V57.25ZM151.25 43.25V46.75H158.25V43.25H151.25ZM151.25 36.25V39.75H158.25V36.25H151.25Z" fill="white"/>
</svg>
