<svg width="320" height="193" viewBox="0 0 320 193" fill="none" xmlns="http://www.w3.org/2000/svg">
<path opacity="0.8" d="M41.9964 139.96H46.1964C48.0071 139.96 49.5097 140.529 50.7044 141.668C51.8991 142.807 52.4964 144.244 52.4964 145.98C52.4964 147.716 51.8991 149.153 50.7044 150.292C49.5097 151.431 48.0071 152 46.1964 152H38.7764V132.4H50.8164V135.48H41.9964V139.96ZM41.9964 148.976H46.1964C47.0924 148.976 47.8297 148.705 48.4084 148.164C48.9871 147.604 49.2764 146.876 49.2764 145.98C49.2764 145.084 48.9871 144.365 48.4084 143.824C47.8297 143.264 47.0924 142.984 46.1964 142.984H41.9964V148.976ZM66.8033 150.236C65.3846 151.655 63.6393 152.364 61.5673 152.364C59.4953 152.364 57.75 151.655 56.3313 150.236C54.894 148.799 54.1753 147.053 54.1753 145C54.1753 142.947 54.894 141.201 56.3313 139.764C57.75 138.345 59.4953 137.636 61.5673 137.636C63.6393 137.636 65.3846 138.345 66.8033 139.764C68.2406 141.201 68.9593 142.947 68.9593 145C68.9593 147.053 68.2406 148.799 66.8033 150.236ZM57.1993 145C57.1993 146.269 57.6193 147.324 58.4593 148.164C59.2993 149.004 60.3353 149.424 61.5673 149.424C62.7993 149.424 63.8353 149.004 64.6753 148.164C65.5153 147.324 65.9353 146.269 65.9353 145C65.9353 143.731 65.5153 142.676 64.6753 141.836C63.8353 140.996 62.7993 140.576 61.5673 140.576C60.3353 140.576 59.2993 140.996 58.4593 141.836C57.6193 142.676 57.1993 143.731 57.1993 145ZM72.3755 138H83.0995V152H80.0755V140.912H75.3995V146.12C75.3995 148.304 74.9235 149.872 73.9715 150.824C73.0195 151.776 71.6289 152.168 69.7995 152V149.172C70.6582 149.321 71.3022 149.144 71.7315 148.64C72.1609 148.117 72.3755 147.231 72.3755 145.98V138ZM100.147 146.288H89.0034C89.2274 147.333 89.7314 148.145 90.5154 148.724C91.318 149.303 92.3074 149.592 93.4834 149.592C95.07 149.592 96.274 149.013 97.0954 147.856L99.5874 149.312C98.2247 151.347 96.1807 152.364 93.4554 152.364C91.1967 152.364 89.358 151.673 87.9394 150.292C86.5394 148.892 85.8394 147.128 85.8394 145C85.8394 142.928 86.53 141.183 87.9114 139.764C89.274 138.345 91.0474 137.636 93.2314 137.636C95.266 137.636 96.946 138.355 98.2714 139.792C99.5967 141.229 100.259 142.975 100.259 145.028C100.259 145.401 100.222 145.821 100.147 146.288ZM88.9754 143.824H97.2074C97.002 142.723 96.5354 141.873 95.8074 141.276C95.098 140.679 94.23 140.38 93.2034 140.38C92.0834 140.38 91.15 140.688 90.4034 141.304C89.6567 141.92 89.1807 142.76 88.9754 143.824ZM116.362 146.288H105.218C105.442 147.333 105.946 148.145 106.73 148.724C107.533 149.303 108.522 149.592 109.698 149.592C111.285 149.592 112.489 149.013 113.31 147.856L115.802 149.312C114.44 151.347 112.396 152.364 109.67 152.364C107.412 152.364 105.573 151.673 104.154 150.292C102.754 148.892 102.054 147.128 102.054 145C102.054 142.928 102.745 141.183 104.126 139.764C105.489 138.345 107.262 137.636 109.446 137.636C111.481 137.636 113.161 138.355 114.486 139.792C115.812 141.229 116.474 142.975 116.474 145.028C116.474 145.401 116.437 145.821 116.362 146.288ZM105.19 143.824H113.422C113.217 142.723 112.75 141.873 112.022 141.276C111.313 140.679 110.445 140.38 109.418 140.38C108.298 140.38 107.365 140.688 106.618 141.304C105.872 141.92 105.396 142.76 105.19 143.824ZM138.931 138.728C138.931 140.221 138.539 141.537 137.755 142.676L131.567 152H127.871L132.351 145.42H132.015C129.98 145.42 128.31 144.804 127.003 143.572C125.715 142.321 125.071 140.707 125.071 138.728C125.071 136.749 125.715 135.144 127.003 133.912C128.31 132.661 129.98 132.036 132.015 132.036C134.068 132.036 135.73 132.661 136.999 133.912C138.287 135.144 138.931 136.749 138.931 138.728ZM128.291 138.728C128.291 139.792 128.636 140.669 129.327 141.36C130.036 142.032 130.932 142.368 132.015 142.368C133.098 142.368 133.984 142.041 134.675 141.388C135.366 140.716 135.711 139.829 135.711 138.728C135.711 137.627 135.366 136.749 134.675 136.096C133.984 135.424 133.098 135.088 132.015 135.088C130.932 135.088 130.036 135.424 129.327 136.096C128.636 136.749 128.291 137.627 128.291 138.728ZM161.105 149.592C159.761 151.44 157.876 152.364 155.449 152.364C153.041 152.364 151.146 151.44 149.765 149.592C148.421 147.744 147.749 145.28 147.749 142.2C147.749 139.12 148.421 136.656 149.765 134.808C151.146 132.96 153.041 132.036 155.449 132.036C157.876 132.036 159.761 132.96 161.105 134.808C162.468 136.637 163.149 139.101 163.149 142.2C163.149 145.299 162.468 147.763 161.105 149.592ZM155.449 149.228C156.905 149.228 158.016 148.621 158.781 147.408C159.546 146.195 159.929 144.459 159.929 142.2C159.929 139.941 159.546 138.205 158.781 136.992C158.016 135.779 156.905 135.172 155.449 135.172C154.012 135.172 152.901 135.779 152.117 136.992C151.352 138.205 150.969 139.941 150.969 142.2C150.969 144.459 151.352 146.195 152.117 147.408C152.901 148.621 154.012 149.228 155.449 149.228ZM178.742 149.592C177.398 151.44 175.512 152.364 173.086 152.364C170.678 152.364 168.783 151.44 167.402 149.592C166.058 147.744 165.386 145.28 165.386 142.2C165.386 139.12 166.058 136.656 167.402 134.808C168.783 132.96 170.678 132.036 173.086 132.036C175.512 132.036 177.398 132.96 178.742 134.808C180.104 136.637 180.786 139.101 180.786 142.2C180.786 145.299 180.104 147.763 178.742 149.592ZM173.086 149.228C174.542 149.228 175.652 148.621 176.418 147.408C177.183 146.195 177.566 144.459 177.566 142.2C177.566 139.941 177.183 138.205 176.418 136.992C175.652 135.779 174.542 135.172 173.086 135.172C171.648 135.172 170.538 135.779 169.754 136.992C168.988 138.205 168.606 139.941 168.606 142.2C168.606 144.459 168.988 146.195 169.754 147.408C170.538 148.621 171.648 149.228 173.086 149.228ZM196.378 149.592C195.034 151.44 193.149 152.364 190.722 152.364C188.314 152.364 186.42 151.44 185.038 149.592C183.694 147.744 183.022 145.28 183.022 142.2C183.022 139.12 183.694 136.656 185.038 134.808C186.42 132.96 188.314 132.036 190.722 132.036C193.149 132.036 195.034 132.96 196.378 134.808C197.741 136.637 198.422 139.101 198.422 142.2C198.422 145.299 197.741 147.763 196.378 149.592ZM190.722 149.228C192.178 149.228 193.289 148.621 194.054 147.408C194.82 146.195 195.202 144.459 195.202 142.2C195.202 139.941 194.82 138.205 194.054 136.992C193.289 135.779 192.178 135.172 190.722 135.172C189.285 135.172 188.174 135.779 187.39 136.992C186.625 138.205 186.242 139.941 186.242 142.2C186.242 144.459 186.625 146.195 187.39 147.408C188.174 148.621 189.285 149.228 190.722 149.228ZM221.015 149.592C219.671 151.44 217.786 152.364 215.359 152.364C212.951 152.364 211.056 151.44 209.675 149.592C208.331 147.744 207.659 145.28 207.659 142.2C207.659 139.12 208.331 136.656 209.675 134.808C211.056 132.96 212.951 132.036 215.359 132.036C217.786 132.036 219.671 132.96 221.015 134.808C222.378 136.637 223.059 139.101 223.059 142.2C223.059 145.299 222.378 147.763 221.015 149.592ZM215.359 149.228C216.815 149.228 217.926 148.621 218.691 147.408C219.456 146.195 219.839 144.459 219.839 142.2C219.839 139.941 219.456 138.205 218.691 136.992C217.926 135.779 216.815 135.172 215.359 135.172C213.922 135.172 212.811 135.779 212.027 136.992C211.262 138.205 210.879 139.941 210.879 142.2C210.879 144.459 211.262 146.195 212.027 147.408C212.811 148.621 213.922 149.228 215.359 149.228ZM238.652 149.592C237.308 151.44 235.422 152.364 232.996 152.364C230.588 152.364 228.693 151.44 227.312 149.592C225.968 147.744 225.296 145.28 225.296 142.2C225.296 139.12 225.968 136.656 227.312 134.808C228.693 132.96 230.588 132.036 232.996 132.036C235.422 132.036 237.308 132.96 238.652 134.808C240.014 136.637 240.696 139.101 240.696 142.2C240.696 145.299 240.014 147.763 238.652 149.592ZM232.996 149.228C234.452 149.228 235.562 148.621 236.328 147.408C237.093 146.195 237.476 144.459 237.476 142.2C237.476 139.941 237.093 138.205 236.328 136.992C235.562 135.779 234.452 135.172 232.996 135.172C231.558 135.172 230.448 135.779 229.664 136.992C228.898 138.205 228.516 139.941 228.516 142.2C228.516 144.459 228.898 146.195 229.664 147.408C230.448 148.621 231.558 149.228 232.996 149.228ZM256.289 149.592C254.945 151.44 253.059 152.364 250.633 152.364C248.225 152.364 246.33 151.44 244.949 149.592C243.605 147.744 242.933 145.28 242.933 142.2C242.933 139.12 243.605 136.656 244.949 134.808C246.33 132.96 248.225 132.036 250.633 132.036C253.059 132.036 254.945 132.96 256.289 134.808C257.651 136.637 258.333 139.101 258.333 142.2C258.333 145.299 257.651 147.763 256.289 149.592ZM250.633 149.228C252.089 149.228 253.199 148.621 253.965 147.408C254.73 146.195 255.113 144.459 255.113 142.2C255.113 139.941 254.73 138.205 253.965 136.992C253.199 135.779 252.089 135.172 250.633 135.172C249.195 135.172 248.085 135.779 247.301 136.992C246.535 138.205 246.153 139.941 246.153 142.2C246.153 144.459 246.535 146.195 247.301 147.408C248.085 148.621 249.195 149.228 250.633 149.228ZM276.333 144.86H272.329V146.736H278.909V148.92H272.329V152H269.109V148.92H266.869V146.736H269.109V144.86H266.869V141.976H269.109V132.4H276.333C278.107 132.4 279.609 133.016 280.841 134.248C282.073 135.443 282.689 136.927 282.689 138.7C282.689 140.436 282.073 141.901 280.841 143.096C279.609 144.272 278.107 144.86 276.333 144.86ZM276.333 135.424H272.329V141.976H276.333C277.229 141.976 277.967 141.659 278.545 141.024C279.161 140.389 279.469 139.615 279.469 138.7C279.469 137.785 279.161 137.011 278.545 136.376C277.967 135.741 277.229 135.424 276.333 135.424Z" fill="#272D31"/>
<path d="M28.2163 190.24C26.7096 190.24 25.4563 189.74 24.4563 188.74C23.4563 187.727 22.9563 186.48 22.9563 185C22.9563 183.52 23.4563 182.28 24.4563 181.28C25.4563 180.267 26.7096 179.76 28.2163 179.76C29.2029 179.76 30.0896 180 30.8763 180.48C31.6629 180.947 32.2363 181.58 32.5963 182.38L31.5163 183C31.2496 182.4 30.8163 181.927 30.2163 181.58C29.6296 181.22 28.9629 181.04 28.2163 181.04C27.1096 181.04 26.1763 181.427 25.4163 182.2C24.6563 182.96 24.2763 183.893 24.2763 185C24.2763 186.107 24.6563 187.047 25.4163 187.82C26.1763 188.58 27.1096 188.96 28.2163 188.96C28.9629 188.96 29.6296 188.787 30.2163 188.44C30.8029 188.08 31.2629 187.6 31.5963 187L32.6963 187.64C32.2829 188.44 31.6763 189.073 30.8763 189.54C30.0763 190.007 29.1896 190.24 28.2163 190.24ZM38.1514 179.76C39.6581 179.76 40.8714 180.26 41.7914 181.26C42.7114 182.247 43.1714 183.493 43.1714 185C43.1714 186.507 42.7047 187.76 41.7714 188.76C40.8514 189.747 39.6314 190.24 38.1114 190.24C37.0314 190.24 36.0914 190.007 35.2914 189.54C34.5047 189.06 33.9381 188.413 33.5914 187.6L34.7314 186.94C34.9581 187.553 35.3647 188.047 35.9514 188.42C36.5381 188.78 37.2581 188.96 38.1114 188.96C39.1114 188.96 39.9447 188.653 40.6114 188.04C41.2781 187.413 41.6781 186.613 41.8114 185.64H36.8314V184.36H41.8114C41.6914 183.387 41.2981 182.593 40.6314 181.98C39.9781 181.353 39.1514 181.04 38.1514 181.04C37.3914 181.04 36.7181 181.22 36.1314 181.58C35.5447 181.94 35.1114 182.427 34.8314 183.04L33.6714 182.38C34.0714 181.567 34.6647 180.927 35.4514 180.46C36.2514 179.993 37.1514 179.76 38.1514 179.76ZM53.4527 190H51.6927L46.6927 185.18V190H45.3727V180H46.6927V184.42L51.4527 180H53.2527L48.0927 184.8L53.4527 190ZM62.6394 188.74C61.626 189.74 60.386 190.24 58.9194 190.24C57.4527 190.24 56.206 189.74 55.1794 188.74C54.166 187.727 53.6594 186.48 53.6594 185C53.6594 183.52 54.166 182.28 55.1794 181.28C56.206 180.267 57.4527 179.76 58.9194 179.76C60.386 179.76 61.626 180.267 62.6394 181.28C63.666 182.28 64.1794 183.52 64.1794 185C64.1794 186.48 63.666 187.727 62.6394 188.74ZM56.1194 187.82C56.8794 188.58 57.8127 188.96 58.9194 188.96C60.026 188.96 60.9594 188.58 61.7194 187.82C62.4794 187.047 62.8594 186.107 62.8594 185C62.8594 183.893 62.4794 182.96 61.7194 182.2C60.9594 181.427 60.026 181.04 58.9194 181.04C57.8127 181.04 56.8794 181.427 56.1194 182.2C55.3594 182.96 54.9794 183.893 54.9794 185C54.9794 186.107 55.3594 187.047 56.1194 187.82ZM73.4683 180H74.7883V190H73.4683V185.64H67.7083V190H66.3883V180H67.7083V184.36H73.4683V180ZM85.9597 188.74C84.9464 189.74 83.7064 190.24 82.2397 190.24C80.773 190.24 79.5264 189.74 78.4997 188.74C77.4864 187.727 76.9797 186.48 76.9797 185C76.9797 183.52 77.4864 182.28 78.4997 181.28C79.5264 180.267 80.773 179.76 82.2397 179.76C83.7064 179.76 84.9464 180.267 85.9597 181.28C86.9864 182.28 87.4997 183.52 87.4997 185C87.4997 186.48 86.9864 187.727 85.9597 188.74ZM79.4397 187.82C80.1997 188.58 81.133 188.96 82.2397 188.96C83.3464 188.96 84.2797 188.58 85.0397 187.82C85.7997 187.047 86.1797 186.107 86.1797 185C86.1797 183.893 85.7997 182.96 85.0397 182.2C84.2797 181.427 83.3464 181.04 82.2397 181.04C81.133 181.04 80.1997 181.427 79.4397 182.2C78.6797 182.96 78.2997 183.893 78.2997 185C78.2997 186.107 78.6797 187.047 79.4397 187.82ZM99.5086 180V190H98.1886V182.02L94.6886 187.7H94.5286L91.0286 182.02V190H89.7086V180H91.2286L94.6086 185.48L97.9886 180H99.5086ZM109.586 180H110.706V190H109.386V182.3L103.426 190H102.306V180H103.626V187.7L109.586 180ZM121.698 180V190H120.378V181.28H115.858V185.74C115.858 187.407 115.538 188.553 114.898 189.18C114.271 189.807 113.404 190.08 112.298 190V188.76C113.058 188.84 113.618 188.66 113.978 188.22C114.351 187.78 114.538 186.953 114.538 185.74V180H121.698ZM131.774 180H132.894V190H131.574V182.3L125.614 190H124.494V180H125.814V187.7L131.774 180ZM147.765 180H149.085V190H147.765V185.64H142.005V190H140.685V180H142.005V184.36H147.765V180ZM160.477 180H161.797V190H160.477V188.04C159.557 189.507 158.21 190.24 156.437 190.24C155.01 190.24 153.79 189.733 152.777 188.72C151.777 187.707 151.277 186.467 151.277 185C151.277 183.533 151.777 182.293 152.777 181.28C153.79 180.267 155.01 179.76 156.437 179.76C158.21 179.76 159.557 180.493 160.477 181.96V180ZM153.737 187.82C154.497 188.58 155.43 188.96 156.537 188.96C157.643 188.96 158.577 188.58 159.337 187.82C160.097 187.047 160.477 186.107 160.477 185C160.477 183.893 160.097 182.96 159.337 182.2C158.577 181.427 157.643 181.04 156.537 181.04C155.43 181.04 154.497 181.427 153.737 182.2C152.977 182.96 152.597 183.893 152.597 185C152.597 186.107 152.977 187.047 153.737 187.82ZM176.671 180H177.991V190H164.591V180H165.911V188.72H170.631V180H171.951V188.72H176.671V180ZM188.063 180H189.183V190H187.863V182.3L181.903 190H180.783V180H182.103V187.7L188.063 180ZM201.774 180V190H200.454V182.02L196.954 187.7H196.794L193.294 182.02V190H191.974V180H193.494L196.874 185.48L200.254 180H201.774ZM217.652 190H215.892L210.892 185.18V190H209.572V180H210.892V184.42L215.652 180H217.452L212.292 184.8L217.652 190ZM227.655 180V190H226.335V181.28H221.815V185.74C221.815 187.407 221.495 188.553 220.855 189.18C220.228 189.807 219.361 190.08 218.255 190V188.76C219.015 188.84 219.575 188.66 219.935 188.22C220.308 187.78 220.495 186.953 220.495 185.74V180H227.655ZM237.731 180H238.851V190H237.531V182.3L231.571 190H230.451V180H231.771V187.7L237.731 180ZM246.262 179.76C247.742 179.76 248.936 180.287 249.842 181.34C250.762 182.38 251.222 183.613 251.222 185.04C251.222 185.187 251.209 185.393 251.182 185.66H242.402C242.536 186.673 242.962 187.48 243.682 188.08C244.416 188.667 245.316 188.96 246.382 188.96C247.142 188.96 247.796 188.807 248.342 188.5C248.902 188.18 249.322 187.767 249.602 187.26L250.762 187.94C250.322 188.647 249.722 189.207 248.962 189.62C248.202 190.033 247.336 190.24 246.362 190.24C244.789 190.24 243.509 189.747 242.522 188.76C241.536 187.773 241.042 186.52 241.042 185C241.042 183.507 241.529 182.26 242.502 181.26C243.476 180.26 244.729 179.76 246.262 179.76ZM246.262 181.04C245.222 181.04 244.349 181.353 243.642 181.98C242.949 182.593 242.536 183.393 242.402 184.38H249.862C249.729 183.327 249.322 182.507 248.642 181.92C247.962 181.333 247.169 181.04 246.262 181.04ZM260.402 180H261.722V190H260.402V185.64H254.642V190H253.322V180H254.642V184.36H260.402V180ZM271.713 180V181.28H268.173V190H266.853V181.28H263.313V180H271.713ZM281.531 180H282.851V190H281.531V188.04C280.611 189.507 279.265 190.24 277.491 190.24C276.065 190.24 274.845 189.733 273.831 188.72C272.831 187.707 272.331 186.467 272.331 185C272.331 183.533 272.831 182.293 273.831 181.28C274.845 180.267 276.065 179.76 277.491 179.76C279.265 179.76 280.611 180.493 281.531 181.96V180ZM274.791 187.82C275.551 188.58 276.485 188.96 277.591 188.96C278.698 188.96 279.631 188.58 280.391 187.82C281.151 187.047 281.531 186.107 281.531 185C281.531 183.893 281.151 182.96 280.391 182.2C279.631 181.427 278.698 181.04 277.591 181.04C276.485 181.04 275.551 181.427 274.791 182.2C274.031 182.96 273.651 183.893 273.651 185C273.651 186.107 274.031 187.047 274.791 187.82ZM295.446 180V190H294.126V182.02L290.626 187.7H290.466L286.966 182.02V190H285.646V180H287.166L290.546 185.48L293.926 180H295.446Z" fill="#5F6970"/>
<rect x="115" width="90" height="90" rx="12" fill="#62359C"/>
<path d="M162 50.0629H158.235V51.9014H167.647V56.6157H158.235V61H148.824V56.6157H146V51.9014H148.824V50.0629H146V41.5771H148.824V28H162C165.42 28 168.275 28.99 170.565 30.97C172.855 32.9186 174 35.5586 174 38.89C174 42.5986 172.886 45.3957 170.659 47.2814C168.431 49.1357 165.545 50.0629 162 50.0629ZM158.235 37.1457V41.5771H162C163.725 41.5771 164.588 40.8386 164.588 39.3614C164.588 37.8843 163.725 37.1457 162 37.1457H158.235Z" fill="white"/>
</svg>
