<svg width="167" height="97" viewBox="0 0 167 97" fill="none" xmlns="http://www.w3.org/2000/svg">
<path opacity="0.71" d="M0.5 32C0.5 24.4434 0.501062 18.8262 1.08133 14.5103C1.65966 10.2087 2.80508 7.27461 5.03984 5.03984C7.27461 2.80508 10.2087 1.65966 14.5103 1.08133C18.8262 0.501062 24.4434 0.5 32 0.5H135C142.557 0.5 148.174 0.501062 152.49 1.08133C156.791 1.65966 159.725 2.80508 161.96 5.03984C164.195 7.27461 165.34 10.2087 165.919 14.5103C166.499 18.8262 166.5 24.4434 166.5 32V65C166.5 72.5566 166.499 78.1738 165.919 82.4897C165.34 86.7913 164.195 89.7254 161.96 91.9602C159.725 94.1949 156.791 95.3403 152.49 95.9187C148.174 96.4989 142.557 96.5 135 96.5H0.5V32Z" fill="white" stroke="#3E62AC"/>
</svg>
