<svg width="88" height="88" viewBox="0 0 88 88" fill="none" xmlns="http://www.w3.org/2000/svg">
<g opacity="0.46">
<path d="M14.6667 47.6667V66H73.3333V47.6667H14.6667ZM20.5993 40.3333H67.4007C68.0254 40.333 68.6398 40.173 69.1853 39.8686C69.7309 39.5642 70.1897 39.1254 70.5181 38.5939C70.8464 38.0624 71.0336 37.4558 71.0617 36.8316C71.0898 36.2075 70.9579 35.5865 70.6787 35.0277L66 25.6667H22L17.3213 35.0277C17.0421 35.5865 16.9102 36.2075 16.9383 36.8316C16.9664 37.4558 17.1536 38.0624 17.482 38.5939C17.8103 39.1254 18.2691 39.5642 18.8147 39.8686C19.3602 40.173 19.9746 40.333 20.5993 40.3333ZM80.6667 49.5V77C80.6667 77.9725 80.2804 78.9051 79.5927 79.5927C78.9051 80.2804 77.9725 80.6667 77 80.6667H73.3333C72.3609 80.6667 71.4282 80.2804 70.7406 79.5927C70.053 78.9051 69.6667 77.9725 69.6667 77V73.3333H18.3333V77C18.3333 77.9725 17.947 78.9051 17.2594 79.5927C16.5718 80.2804 15.6391 80.6667 14.6667 80.6667H11C10.0275 80.6667 9.09491 80.2804 8.40728 79.5927C7.71964 78.9051 7.33333 77.9725 7.33333 77V49.5L2.77567 48.3633C1.98276 48.1647 1.27896 47.7068 0.77607 47.0624C0.273175 46.418 2.14883e-05 45.6241 0 44.8067L0 42.1667C0 41.6804 0.193154 41.2141 0.536971 40.8703C0.880788 40.5265 1.3471 40.3333 1.83333 40.3333H7.33333L16.3057 22.3887C16.9148 21.1696 17.8516 20.1444 19.0109 19.4281C20.1702 18.7118 21.5062 18.3327 22.869 18.3333H29.3333V11H40.3333V18.3333H47.6667V11H58.6667V18.3333H65.1347C66.4968 18.3334 67.832 18.7128 68.9906 19.4291C70.1492 20.1454 71.0855 21.1702 71.6943 22.3887L80.6667 40.3333H86.1667C86.6529 40.3333 87.1192 40.5265 87.463 40.8703C87.8068 41.2141 88 41.6804 88 42.1667V44.8067C88 45.6241 87.7268 46.418 87.2239 47.0624C86.721 47.7068 86.0172 48.1647 85.2243 48.3633L80.6667 49.5ZM18.3333 51.3333C26.829 51.3333 32.5563 54.1017 35.5153 59.6347C35.6649 59.914 35.7395 60.2274 35.7319 60.5442C35.7242 60.861 35.6346 61.1705 35.4717 61.4423C35.3088 61.7141 35.0783 61.9391 34.8025 62.0953C34.5268 62.2514 34.2152 62.3335 33.8983 62.3333H22C21.0275 62.3333 20.0949 61.947 19.4073 61.2594C18.7196 60.5718 18.3333 59.6391 18.3333 58.6667V51.3333ZM69.6667 51.3333V58.6667C69.6667 59.6391 69.2804 60.5718 68.5927 61.2594C67.9051 61.947 66.9725 62.3333 66 62.3333H54.1017C53.7851 62.3328 53.474 62.2503 53.1988 62.0939C52.9235 61.9375 52.6935 61.7125 52.531 61.4407C52.3686 61.169 52.2793 60.8598 52.2718 60.5433C52.2643 60.2268 52.3389 59.9138 52.4883 59.6347C55.44 54.098 61.1673 51.3333 69.6667 51.3333Z" fill="#3E62AC"/>
</g>
</svg>
