<svg width="88" height="88" viewBox="0 0 88 88" fill="none" xmlns="http://www.w3.org/2000/svg">
<path d="M77 29.3335V76.9745C77.0034 77.456 76.9119 77.9335 76.7307 78.3796C76.5496 78.8258 76.2823 79.2319 75.9442 79.5748C75.6061 79.9176 75.2038 80.1905 74.7602 80.3779C74.3167 80.5653 73.8405 80.6635 73.359 80.6668H14.641C13.676 80.6668 12.7504 80.2837 12.0677 79.6017C11.385 78.9197 11.001 77.9945 11 77.0295V10.9708C11 9.00183 12.6463 7.3335 14.674 7.3335H54.989L77 29.3335ZM69.6667 33.0002H51.3333V14.6668H18.3333V73.3335H69.6667V33.0002ZM29.3333 25.6668H40.3333V33.0002H29.3333V25.6668ZM29.3333 40.3335H58.6667V47.6668H29.3333V40.3335ZM29.3333 55.0002H58.6667V62.3335H29.3333V55.0002Z" fill="#A6B7D9"/>
</svg>
