<svg width="560" height="100" viewBox="0 0 560 100" fill="none" xmlns="http://www.w3.org/2000/svg">
<path d="M332.5 99.5V0.5H544C547.785 0.5 550.574 0.501062 552.712 0.788435C554.835 1.07387 556.24 1.63351 557.303 2.6967C558.366 3.75989 558.926 5.16538 559.212 7.28845C559.499 9.4259 559.5 12.2146 559.5 16V84C559.5 87.7854 559.499 90.5741 559.212 92.7115C558.926 94.8346 558.366 96.2401 557.303 97.3033C556.24 98.3665 554.835 98.9261 552.712 99.2116C550.574 99.4989 547.785 99.5 544 99.5H332.5Z" fill="#35579C" fill-opacity="0.15" stroke="#3E62AC"/>
<rect x="0.5" y="0.5" width="559" height="99" rx="7.5" stroke="#3E62AC"/>
<path d="M40.26 40H38.604L32.7 33.898V40H31.44V27.4H32.7V33.16L38.424 27.4H40.08L34.032 33.52L40.26 40ZM49.0814 31V40H47.8934V32.152H43.8254V36.166C43.8254 37.666 43.5374 38.698 42.9614 39.262C42.3974 39.826 41.6174 40.072 40.6214 40V38.884C41.3054 38.956 41.8094 38.794 42.1334 38.398C42.4694 38.002 42.6374 37.258 42.6374 36.166V31H49.0814ZM58.1499 31H59.1579V40H57.9699V33.07L52.6059 40H51.5979V31H52.7859V37.93L58.1499 31ZM65.8282 30.784C67.1602 30.784 68.2342 31.258 69.0502 32.206C69.8782 33.142 70.2922 34.252 70.2922 35.536C70.2922 35.668 70.2802 35.854 70.2562 36.094H62.3542C62.4742 37.006 62.8582 37.732 63.5062 38.272C64.1662 38.8 64.9762 39.064 65.9362 39.064C66.6202 39.064 67.2082 38.926 67.7002 38.65C68.2042 38.362 68.5822 37.99 68.8342 37.534L69.8782 38.146C69.4822 38.782 68.9422 39.286 68.2582 39.658C67.5742 40.03 66.7942 40.216 65.9182 40.216C64.5022 40.216 63.3502 39.772 62.4622 38.884C61.5742 37.996 61.1302 36.868 61.1302 35.5C61.1302 34.156 61.5682 33.034 62.4442 32.134C63.3202 31.234 64.4482 30.784 65.8282 30.784ZM65.8282 31.936C64.8922 31.936 64.1062 32.218 63.4702 32.782C62.8462 33.334 62.4742 34.054 62.3542 34.942H69.0682C68.9482 33.994 68.5822 33.256 67.9702 32.728C67.3582 32.2 66.6442 31.936 65.8282 31.936ZM78.5539 31H79.7419V40H78.5539V36.076H73.3699V40H72.1819V31H73.3699V34.924H78.5539V31ZM88.7341 31V32.152H85.5481V40H84.3601V32.152H81.1741V31H88.7341ZM98.8759 40.216C97.5199 40.216 96.3919 39.766 95.4919 38.866C94.5919 37.954 94.1419 36.832 94.1419 35.5C94.1419 34.168 94.5919 33.052 95.4919 32.152C96.3919 31.24 97.5199 30.784 98.8759 30.784C99.7639 30.784 100.562 31 101.27 31.432C101.978 31.852 102.494 32.422 102.818 33.142L101.846 33.7C101.606 33.16 101.216 32.734 100.676 32.422C100.148 32.098 99.5479 31.936 98.8759 31.936C97.8799 31.936 97.0399 32.284 96.3559 32.98C95.6719 33.664 95.3299 34.504 95.3299 35.5C95.3299 36.496 95.6719 37.342 96.3559 38.038C97.0399 38.722 97.8799 39.064 98.8759 39.064C99.5479 39.064 100.148 38.908 100.676 38.596C101.204 38.272 101.618 37.84 101.918 37.3L102.908 37.876C102.536 38.596 101.99 39.166 101.27 39.586C100.55 40.006 99.7519 40.216 98.8759 40.216ZM107.818 30.784C109.174 30.784 110.266 31.234 111.094 32.134C111.922 33.022 112.336 34.144 112.336 35.5C112.336 36.856 111.916 37.984 111.076 38.884C110.248 39.772 109.15 40.216 107.782 40.216C106.81 40.216 105.964 40.006 105.244 39.586C104.536 39.154 104.026 38.572 103.714 37.84L104.74 37.246C104.944 37.798 105.31 38.242 105.838 38.578C106.366 38.902 107.014 39.064 107.782 39.064C108.682 39.064 109.432 38.788 110.032 38.236C110.632 37.672 110.992 36.952 111.112 36.076H106.63V34.924H111.112C111.004 34.048 110.65 33.334 110.05 32.782C109.462 32.218 108.718 31.936 107.818 31.936C107.134 31.936 106.528 32.098 106 32.422C105.472 32.746 105.082 33.184 104.83 33.736L103.786 33.142C104.146 32.41 104.68 31.834 105.388 31.414C106.108 30.994 106.918 30.784 107.818 30.784ZM121.589 40H120.005L115.505 35.662V40H114.317V31H115.505V34.978L119.789 31H121.409L116.765 35.32L121.589 40ZM129.857 38.866C128.945 39.766 127.829 40.216 126.509 40.216C125.189 40.216 124.067 39.766 123.143 38.866C122.231 37.954 121.775 36.832 121.775 35.5C121.775 34.168 122.231 33.052 123.143 32.152C124.067 31.24 125.189 30.784 126.509 30.784C127.829 30.784 128.945 31.24 129.857 32.152C130.781 33.052 131.243 34.168 131.243 35.5C131.243 36.832 130.781 37.954 129.857 38.866ZM123.989 38.038C124.673 38.722 125.513 39.064 126.509 39.064C127.505 39.064 128.345 38.722 129.029 38.038C129.713 37.342 130.055 36.496 130.055 35.5C130.055 34.504 129.713 33.664 129.029 32.98C128.345 32.284 127.505 31.936 126.509 31.936C125.513 31.936 124.673 32.284 123.989 32.98C123.305 33.664 122.963 34.504 122.963 35.5C122.963 36.496 123.305 37.342 123.989 38.038ZM139.603 31H140.791V40H139.603V36.076H134.419V40H133.231V31H134.419V34.924H139.603V31ZM150.845 38.866C149.933 39.766 148.817 40.216 147.497 40.216C146.177 40.216 145.055 39.766 144.131 38.866C143.219 37.954 142.763 36.832 142.763 35.5C142.763 34.168 143.219 33.052 144.131 32.152C145.055 31.24 146.177 30.784 147.497 30.784C148.817 30.784 149.933 31.24 150.845 32.152C151.769 33.052 152.231 34.168 152.231 35.5C152.231 36.832 151.769 37.954 150.845 38.866ZM144.977 38.038C145.661 38.722 146.501 39.064 147.497 39.064C148.493 39.064 149.333 38.722 150.017 38.038C150.701 37.342 151.043 36.496 151.043 35.5C151.043 34.504 150.701 33.664 150.017 32.98C149.333 32.284 148.493 31.936 147.497 31.936C146.501 31.936 145.661 32.284 144.977 32.98C144.293 33.664 143.951 34.504 143.951 35.5C143.951 36.496 144.293 37.342 144.977 38.038ZM163.039 31V40H161.851V32.818L158.701 37.93H158.557L155.407 32.818V40H154.219V31H155.587L158.629 35.932L161.671 31H163.039ZM172.109 31H173.117V40H171.929V33.07L166.565 40H165.557V31H166.745V37.93L172.109 31ZM183.009 31V40H181.821V32.152H177.753V36.166C177.753 37.666 177.465 38.698 176.889 39.262C176.325 39.826 175.545 40.072 174.549 40V38.884C175.233 38.956 175.737 38.794 176.061 38.398C176.397 38.002 176.565 37.258 176.565 36.166V31H183.009ZM196.398 31H197.586V40H196.398V36.076H191.214V40H190.026V31H191.214V34.924H196.398V31ZM207.838 31H209.026V40H207.838V38.236C207.01 39.556 205.798 40.216 204.202 40.216C202.918 40.216 201.82 39.76 200.908 38.848C200.008 37.936 199.558 36.82 199.558 35.5C199.558 34.18 200.008 33.064 200.908 32.152C201.82 31.24 202.918 30.784 204.202 30.784C205.798 30.784 207.01 31.444 207.838 32.764V31ZM201.772 38.038C202.456 38.722 203.296 39.064 204.292 39.064C205.288 39.064 206.128 38.722 206.812 38.038C207.496 37.342 207.838 36.496 207.838 35.5C207.838 34.504 207.496 33.664 206.812 32.98C206.128 32.284 205.288 31.936 204.292 31.936C203.296 31.936 202.456 32.284 201.772 32.98C201.088 33.664 200.746 34.504 200.746 35.5C200.746 36.496 201.088 37.342 201.772 38.038ZM220.865 30.784C222.149 30.784 223.241 31.24 224.141 32.152C225.053 33.064 225.509 34.18 225.509 35.5C225.509 36.82 225.053 37.936 224.141 38.848C223.241 39.76 222.149 40.216 220.865 40.216C219.269 40.216 218.057 39.556 217.229 38.236V43.6H216.041V31H217.229V32.764C218.057 31.444 219.269 30.784 220.865 30.784ZM218.255 38.038C218.939 38.722 219.779 39.064 220.775 39.064C221.771 39.064 222.611 38.722 223.295 38.038C223.979 37.342 224.321 36.496 224.321 35.5C224.321 34.504 223.979 33.664 223.295 32.98C222.611 32.284 221.771 31.936 220.775 31.936C219.779 31.936 218.939 32.284 218.255 32.98C217.571 33.664 217.229 34.504 217.229 35.5C217.229 36.496 217.571 37.342 218.255 38.038ZM231.643 30.784C232.975 30.784 234.049 31.258 234.865 32.206C235.693 33.142 236.107 34.252 236.107 35.536C236.107 35.668 236.095 35.854 236.071 36.094H228.169C228.289 37.006 228.673 37.732 229.321 38.272C229.981 38.8 230.791 39.064 231.751 39.064C232.435 39.064 233.023 38.926 233.515 38.65C234.019 38.362 234.397 37.99 234.649 37.534L235.693 38.146C235.297 38.782 234.757 39.286 234.073 39.658C233.389 40.03 232.609 40.216 231.733 40.216C230.317 40.216 229.165 39.772 228.277 38.884C227.389 37.996 226.945 36.868 226.945 35.5C226.945 34.156 227.383 33.034 228.259 32.134C229.135 31.234 230.263 30.784 231.643 30.784ZM231.643 31.936C230.707 31.936 229.921 32.218 229.285 32.782C228.661 33.334 228.289 34.054 228.169 34.942H234.883C234.763 33.994 234.397 33.256 233.785 32.728C233.173 32.2 232.459 31.936 231.643 31.936ZM246.816 31V40H245.628V32.818L242.478 37.93H242.334L239.184 32.818V40H237.996V31H239.364L242.406 35.932L245.448 31H246.816ZM256.876 38.866C255.964 39.766 254.848 40.216 253.528 40.216C252.208 40.216 251.086 39.766 250.162 38.866C249.25 37.954 248.794 36.832 248.794 35.5C248.794 34.168 249.25 33.052 250.162 32.152C251.086 31.24 252.208 30.784 253.528 30.784C254.848 30.784 255.964 31.24 256.876 32.152C257.8 33.052 258.262 34.168 258.262 35.5C258.262 36.832 257.8 37.954 256.876 38.866ZM251.008 38.038C251.692 38.722 252.532 39.064 253.528 39.064C254.524 39.064 255.364 38.722 256.048 38.038C256.732 37.342 257.074 36.496 257.074 35.5C257.074 34.504 256.732 33.664 256.048 32.98C255.364 32.284 254.524 31.936 253.528 31.936C252.532 31.936 251.692 32.284 251.008 32.98C250.324 33.664 249.982 34.504 249.982 35.5C249.982 36.496 250.324 37.342 251.008 38.038ZM266.622 31H267.81V40H266.622V36.076H261.438V40H260.25V31H261.438V34.924H266.622V31ZM276.803 31V32.152H273.617V40H272.429V32.152H269.243V31H276.803Z" fill="#272D31"/>
<path d="M369.326 40.216C367.418 40.216 365.84 39.586 364.592 38.326C363.344 37.066 362.72 35.524 362.72 33.7C362.72 31.876 363.344 30.334 364.592 29.074C365.84 27.814 367.418 27.184 369.326 27.184C370.49 27.184 371.558 27.466 372.53 28.03C373.502 28.582 374.252 29.332 374.78 30.28L373.664 30.928C373.268 30.16 372.68 29.548 371.9 29.092C371.12 28.636 370.262 28.408 369.326 28.408C367.754 28.408 366.47 28.918 365.474 29.938C364.478 30.958 363.98 32.212 363.98 33.7C363.98 35.188 364.478 36.442 365.474 37.462C366.47 38.482 367.754 38.992 369.326 38.992C370.262 38.992 371.12 38.764 371.9 38.308C372.68 37.852 373.268 37.24 373.664 36.472L374.78 37.102C374.264 38.05 373.514 38.806 372.53 39.37C371.558 39.934 370.49 40.216 369.326 40.216ZM383.152 31V32.152H379.966V40H378.778V32.152H375.592V31H383.152ZM391.79 38.866C390.878 39.766 389.762 40.216 388.442 40.216C387.122 40.216 386 39.766 385.076 38.866C384.164 37.954 383.708 36.832 383.708 35.5C383.708 34.168 384.164 33.052 385.076 32.152C386 31.24 387.122 30.784 388.442 30.784C389.762 30.784 390.878 31.24 391.79 32.152C392.714 33.052 393.176 34.168 393.176 35.5C393.176 36.832 392.714 37.954 391.79 38.866ZM385.922 38.038C386.606 38.722 387.446 39.064 388.442 39.064C389.438 39.064 390.278 38.722 390.962 38.038C391.646 37.342 391.988 36.496 391.988 35.5C391.988 34.504 391.646 33.664 390.962 32.98C390.278 32.284 389.438 31.936 388.442 31.936C387.446 31.936 386.606 32.284 385.922 32.98C385.238 33.664 384.896 34.504 384.896 35.5C384.896 36.496 385.238 37.342 385.922 38.038ZM401.716 31H402.724V40H401.536V33.07L396.172 40H395.164V31H396.352V37.93L401.716 31ZM414.057 31V40H412.869V32.818L409.719 37.93H409.575L406.425 32.818V40H405.237V31H406.605L409.647 35.932L412.689 31H414.057ZM424.116 38.866C423.204 39.766 422.088 40.216 420.768 40.216C419.448 40.216 418.326 39.766 417.402 38.866C416.49 37.954 416.034 36.832 416.034 35.5C416.034 34.168 416.49 33.052 417.402 32.152C418.326 31.24 419.448 30.784 420.768 30.784C422.088 30.784 423.204 31.24 424.116 32.152C425.04 33.052 425.502 34.168 425.502 35.5C425.502 36.832 425.04 37.954 424.116 38.866ZM418.248 38.038C418.932 38.722 419.772 39.064 420.768 39.064C421.764 39.064 422.604 38.722 423.288 38.038C423.972 37.342 424.314 36.496 424.314 35.5C424.314 34.504 423.972 33.664 423.288 32.98C422.604 32.284 421.764 31.936 420.768 31.936C419.772 31.936 418.932 32.284 418.248 32.98C417.564 33.664 417.222 34.504 417.222 35.5C417.222 36.496 417.564 37.342 418.248 38.038ZM431.684 40.216C430.328 40.216 429.2 39.766 428.3 38.866C427.4 37.954 426.95 36.832 426.95 35.5C426.95 34.168 427.4 33.052 428.3 32.152C429.2 31.24 430.328 30.784 431.684 30.784C432.572 30.784 433.37 31 434.078 31.432C434.786 31.852 435.302 32.422 435.626 33.142L434.654 33.7C434.414 33.16 434.024 32.734 433.484 32.422C432.956 32.098 432.356 31.936 431.684 31.936C430.688 31.936 429.848 32.284 429.164 32.98C428.48 33.664 428.138 34.504 428.138 35.5C428.138 36.496 428.48 37.342 429.164 38.038C429.848 38.722 430.688 39.064 431.684 39.064C432.356 39.064 432.956 38.908 433.484 38.596C434.012 38.272 434.426 37.84 434.726 37.3L435.716 37.876C435.344 38.596 434.798 39.166 434.078 39.586C433.358 40.006 432.56 40.216 431.684 40.216ZM443.726 31V32.152H440.54V40H439.352V32.152H436.166V31H443.726ZM448.828 34.42C449.668 34.42 450.376 34.684 450.952 35.212C451.54 35.728 451.834 36.394 451.834 37.21C451.834 38.026 451.54 38.698 450.952 39.226C450.376 39.742 449.668 40 448.828 40H445.174V31H446.362V34.42H448.828ZM448.828 38.848C449.332 38.848 449.758 38.698 450.106 38.398C450.466 38.098 450.646 37.702 450.646 37.21C450.646 36.718 450.466 36.322 450.106 36.022C449.758 35.722 449.332 35.572 448.828 35.572H446.362V38.848H448.828ZM465.689 31V40H464.501V32.152H459.317V40H458.129V31H465.689ZM473.025 30.784C474.309 30.784 475.401 31.24 476.301 32.152C477.213 33.064 477.669 34.18 477.669 35.5C477.669 36.82 477.213 37.936 476.301 38.848C475.401 39.76 474.309 40.216 473.025 40.216C471.429 40.216 470.217 39.556 469.389 38.236V43.6H468.201V31H469.389V32.764C470.217 31.444 471.429 30.784 473.025 30.784ZM470.415 38.038C471.099 38.722 471.939 39.064 472.935 39.064C473.931 39.064 474.771 38.722 475.455 38.038C476.139 37.342 476.481 36.496 476.481 35.5C476.481 34.504 476.139 33.664 475.455 32.98C474.771 32.284 473.931 31.936 472.935 31.936C471.939 31.936 471.099 32.284 470.415 32.98C469.731 33.664 469.389 34.504 469.389 35.5C469.389 36.496 469.731 37.342 470.415 38.038ZM486.197 31H487.205V40H486.017V33.07L480.653 40H479.645V31H480.833V37.93L486.197 31ZM493.875 30.784C495.207 30.784 496.281 31.258 497.097 32.206C497.925 33.142 498.339 34.252 498.339 35.536C498.339 35.668 498.327 35.854 498.303 36.094H490.401C490.521 37.006 490.905 37.732 491.553 38.272C492.213 38.8 493.023 39.064 493.983 39.064C494.667 39.064 495.255 38.926 495.747 38.65C496.251 38.362 496.629 37.99 496.881 37.534L497.925 38.146C497.529 38.782 496.989 39.286 496.305 39.658C495.621 40.03 494.841 40.216 493.965 40.216C492.549 40.216 491.397 39.772 490.509 38.884C489.621 37.996 489.177 36.868 489.177 35.5C489.177 34.156 489.615 33.034 490.491 32.134C491.367 31.234 492.495 30.784 493.875 30.784ZM493.875 31.936C492.939 31.936 492.153 32.218 491.517 32.782C490.893 33.334 490.521 34.054 490.401 34.942H497.115C496.995 33.994 496.629 33.256 496.017 32.728C495.405 32.2 494.691 31.936 493.875 31.936ZM509.049 31V40H507.861V32.818L504.711 37.93H504.567L501.417 32.818V40H500.229V31H501.597L504.639 35.932L507.681 31H509.049ZM518.839 40H517.255L512.755 35.662V40H511.567V31H512.755V34.978L517.039 31H518.659L514.015 35.32L518.839 40ZM527.013 31H528.021V40H526.833V33.07L521.469 40H520.461V31H521.649V37.93L527.013 31Z" fill="#3E62AC"/>
<path d="M39.84 70H30.62V68.2L35.5 63.22C36.6867 62.0333 37.28 61.0067 37.28 60.14C37.28 59.4733 37.08 58.9467 36.68 58.56C36.28 58.1733 35.76 57.98 35.12 57.98C33.9467 57.98 33.08 58.56 32.52 59.72L30.58 58.58C31.0067 57.66 31.62 56.96 32.42 56.48C33.22 55.9867 34.1133 55.74 35.1 55.74C36.34 55.74 37.3933 56.1267 38.26 56.9C39.14 57.6867 39.58 58.74 39.58 60.06C39.58 61.4733 38.7867 62.9933 37.2 64.62L34.04 67.78H39.84V70ZM40.4953 58.2V56H49.3953V58L44.4753 70H42.0553L46.8953 58.2H40.4953ZM59.5588 68.28C58.5988 69.6 57.2521 70.26 55.5188 70.26C53.7988 70.26 52.4454 69.6 51.4588 68.28C50.4988 66.96 50.0188 65.2 50.0188 63C50.0188 60.8 50.4988 59.04 51.4588 57.72C52.4454 56.4 53.7988 55.74 55.5188 55.74C57.2521 55.74 58.5988 56.4 59.5588 57.72C60.5321 59.0267 61.0188 60.7867 61.0188 63C61.0188 65.2133 60.5321 66.9733 59.5588 68.28ZM55.5188 68.02C56.5588 68.02 57.3521 67.5867 57.8988 66.72C58.4454 65.8533 58.7188 64.6133 58.7188 63C58.7188 61.3867 58.4454 60.1467 57.8988 59.28C57.3521 58.4133 56.5588 57.98 55.5188 57.98C54.4921 57.98 53.6988 58.4133 53.1388 59.28C52.5921 60.1467 52.3188 61.3867 52.3188 63C52.3188 64.6133 52.5921 65.8533 53.1388 66.72C53.6988 67.5867 54.4921 68.02 55.5188 68.02ZM77.1564 68.28C76.1964 69.6 74.8497 70.26 73.1164 70.26C71.3964 70.26 70.0431 69.6 69.0564 68.28C68.0964 66.96 67.6164 65.2 67.6164 63C67.6164 60.8 68.0964 59.04 69.0564 57.72C70.0431 56.4 71.3964 55.74 73.1164 55.74C74.8497 55.74 76.1964 56.4 77.1564 57.72C78.1297 59.0267 78.6164 60.7867 78.6164 63C78.6164 65.2133 78.1297 66.9733 77.1564 68.28ZM73.1164 68.02C74.1564 68.02 74.9497 67.5867 75.4964 66.72C76.0431 65.8533 76.3164 64.6133 76.3164 63C76.3164 61.3867 76.0431 60.1467 75.4964 59.28C74.9497 58.4133 74.1564 57.98 73.1164 57.98C72.0897 57.98 71.2964 58.4133 70.7364 59.28C70.1897 60.1467 69.9164 61.3867 69.9164 63C69.9164 64.6133 70.1897 65.8533 70.7364 66.72C71.2964 67.5867 72.0897 68.02 73.1164 68.02ZM89.7541 68.28C88.7941 69.6 87.4474 70.26 85.7141 70.26C83.9941 70.26 82.6407 69.6 81.6541 68.28C80.6941 66.96 80.2141 65.2 80.2141 63C80.2141 60.8 80.6941 59.04 81.6541 57.72C82.6407 56.4 83.9941 55.74 85.7141 55.74C87.4474 55.74 88.7941 56.4 89.7541 57.72C90.7274 59.0267 91.2141 60.7867 91.2141 63C91.2141 65.2133 90.7274 66.9733 89.7541 68.28ZM85.7141 68.02C86.7541 68.02 87.5474 67.5867 88.0941 66.72C88.6407 65.8533 88.9141 64.6133 88.9141 63C88.9141 61.3867 88.6407 60.1467 88.0941 59.28C87.5474 58.4133 86.7541 57.98 85.7141 57.98C84.6874 57.98 83.8941 58.4133 83.3341 59.28C82.7874 60.1467 82.5141 61.3867 82.5141 63C82.5141 64.6133 82.7874 65.8533 83.3341 66.72C83.8941 67.5867 84.6874 68.02 85.7141 68.02ZM102.352 68.28C101.392 69.6 100.045 70.26 98.3117 70.26C96.5917 70.26 95.2384 69.6 94.2517 68.28C93.2917 66.96 92.8117 65.2 92.8117 63C92.8117 60.8 93.2917 59.04 94.2517 57.72C95.2384 56.4 96.5917 55.74 98.3117 55.74C100.045 55.74 101.392 56.4 102.352 57.72C103.325 59.0267 103.812 60.7867 103.812 63C103.812 65.2133 103.325 66.9733 102.352 68.28ZM98.3117 68.02C99.3517 68.02 100.145 67.5867 100.692 66.72C101.238 65.8533 101.512 64.6133 101.512 63C101.512 61.3867 101.238 60.1467 100.692 59.28C100.145 58.4133 99.3517 57.98 98.3117 57.98C97.2851 57.98 96.4917 58.4133 95.9317 59.28C95.3851 60.1467 95.1117 61.3867 95.1117 63C95.1117 64.6133 95.3851 65.8533 95.9317 66.72C96.4917 67.5867 97.2851 68.02 98.3117 68.02ZM116.529 59.74C117.889 59.74 119.063 60.2533 120.049 61.28C121.023 62.2933 121.509 63.5333 121.509 65C121.509 66.48 121.023 67.7267 120.049 68.74C119.076 69.7533 117.903 70.26 116.529 70.26C115.023 70.26 113.856 69.7 113.029 68.58V74H110.869V60H113.029V61.44C113.843 60.3067 115.009 59.74 116.529 59.74ZM113.929 67.3C114.529 67.9 115.283 68.2 116.189 68.2C117.096 68.2 117.849 67.9 118.449 67.3C119.049 66.6867 119.349 65.92 119.349 65C119.349 64.08 119.049 63.32 118.449 62.72C117.849 62.1067 117.096 61.8 116.189 61.8C115.283 61.8 114.529 62.1067 113.929 62.72C113.329 63.32 113.029 64.08 113.029 65C113.029 65.9067 113.329 66.6733 113.929 67.3ZM127.256 67.28L129.816 60H132.116L128.276 70.32C127.81 71.5867 127.156 72.5333 126.316 73.16C125.476 73.7867 124.503 74.0667 123.396 74V71.98C124.676 72.06 125.563 71.42 126.056 70.06L126.116 69.92L121.916 60H124.216L127.256 67.28ZM137.716 70.26C136.196 70.26 134.943 69.7667 133.956 68.78C132.996 67.78 132.516 66.5067 132.516 64.96C132.516 63.28 132.77 61.9733 133.276 61.04C133.77 60.12 134.796 59.2733 136.356 58.5C136.41 58.4733 136.496 58.4333 136.616 58.38C136.75 58.3133 136.89 58.2467 137.036 58.18C137.183 58.1133 137.33 58.0467 137.476 57.98C138.036 57.7267 138.383 57.5667 138.516 57.5C138.596 57.46 138.83 57.3133 139.216 57.06C139.683 56.7267 139.996 56.2533 140.156 55.64L141.916 56.66C141.85 57.3933 141.39 58.0667 140.536 58.68C140.39 58.8133 140.116 58.9733 139.716 59.16L138.856 59.56L137.856 59.98C136.99 60.3267 136.35 60.68 135.936 61.04C135.523 61.4 135.236 61.86 135.076 62.42C135.876 61.5133 136.963 61.06 138.336 61.06C139.51 61.06 140.53 61.48 141.396 62.32C142.276 63.16 142.716 64.2467 142.716 65.58C142.716 66.94 142.25 68.06 141.316 68.94C140.396 69.82 139.196 70.26 137.716 70.26ZM137.696 68.24C138.536 68.24 139.223 67.9933 139.756 67.5C140.29 66.9933 140.556 66.3533 140.556 65.58C140.556 64.7933 140.29 64.1467 139.756 63.64C139.236 63.1333 138.556 62.88 137.716 62.88C136.97 62.88 136.296 63.12 135.696 63.6C135.096 64.0533 134.796 64.68 134.796 65.48C134.796 66.28 135.076 66.94 135.636 67.46C136.196 67.98 136.883 68.24 137.696 68.24ZM144.911 60H152.571V70H150.411V62.08H147.071V65.8C147.071 67.36 146.731 68.48 146.051 69.16C145.371 69.84 144.378 70.12 143.071 70V67.98C143.684 68.0867 144.144 67.96 144.451 67.6C144.758 67.2267 144.911 66.5933 144.911 65.7V60ZM164.748 65.92H156.788C156.948 66.6667 157.308 67.2467 157.868 67.66C158.441 68.0733 159.148 68.28 159.988 68.28C161.121 68.28 161.981 67.8667 162.568 67.04L164.348 68.08C163.375 69.5333 161.915 70.26 159.968 70.26C158.355 70.26 157.041 69.7667 156.028 68.78C155.028 67.78 154.528 66.52 154.528 65C154.528 63.52 155.021 62.2733 156.008 61.26C156.981 60.2467 158.248 59.74 159.808 59.74C161.261 59.74 162.461 60.2533 163.408 61.28C164.355 62.3067 164.828 63.5533 164.828 65.02C164.828 65.2867 164.801 65.5867 164.748 65.92ZM156.768 64.16H162.648C162.501 63.3733 162.168 62.7667 161.648 62.34C161.141 61.9133 160.521 61.7 159.788 61.7C158.988 61.7 158.321 61.92 157.788 62.36C157.255 62.8 156.915 63.4 156.768 64.16ZM173.969 58.6H168.369V56.72H173.969V58.6ZM168.849 66.34L173.969 60H175.629V70H173.509V63.64L168.389 70H166.729V60H168.849V66.34Z" fill="#272D31"/>
<path d="M371.66 65.34H373.26V67.48H371.66V70H369.34V67.48H362.46V65.34L367.28 56H369.78L364.96 65.34H369.34V61.7H371.66V65.34ZM382.342 61.28H384.102C385.435 61.28 386.562 61.68 387.482 62.48C388.402 63.2667 388.862 64.36 388.862 65.76C388.862 67.16 388.388 68.26 387.442 69.06C386.508 69.86 385.348 70.26 383.962 70.26C382.828 70.26 381.842 70 381.002 69.48C380.162 68.96 379.562 68.22 379.202 67.26L381.182 66.12C381.568 67.3867 382.495 68.02 383.962 68.02C384.748 68.02 385.375 67.82 385.842 67.42C386.322 67.0067 386.562 66.4533 386.562 65.76C386.562 65.08 386.328 64.54 385.862 64.14C385.395 63.7267 384.775 63.52 384.002 63.52H379.922L380.462 56H388.262V58.16H382.582L382.342 61.28ZM399.528 68.28C398.568 69.6 397.221 70.26 395.488 70.26C393.768 70.26 392.414 69.6 391.428 68.28C390.468 66.96 389.988 65.2 389.988 63C389.988 60.8 390.468 59.04 391.428 57.72C392.414 56.4 393.768 55.74 395.488 55.74C397.221 55.74 398.568 56.4 399.528 57.72C400.501 59.0267 400.988 60.7867 400.988 63C400.988 65.2133 400.501 66.9733 399.528 68.28ZM395.488 68.02C396.528 68.02 397.321 67.5867 397.868 66.72C398.414 65.8533 398.688 64.6133 398.688 63C398.688 61.3867 398.414 60.1467 397.868 59.28C397.321 58.4133 396.528 57.98 395.488 57.98C394.461 57.98 393.668 58.4133 393.108 59.28C392.561 60.1467 392.288 61.3867 392.288 63C392.288 64.6133 392.561 65.8533 393.108 66.72C393.668 67.5867 394.461 68.02 395.488 68.02ZM412.125 68.28C411.165 69.6 409.818 70.26 408.085 70.26C406.365 70.26 405.012 69.6 404.025 68.28C403.065 66.96 402.585 65.2 402.585 63C402.585 60.8 403.065 59.04 404.025 57.72C405.012 56.4 406.365 55.74 408.085 55.74C409.818 55.74 411.165 56.4 412.125 57.72C413.098 59.0267 413.585 60.7867 413.585 63C413.585 65.2133 413.098 66.9733 412.125 68.28ZM408.085 68.02C409.125 68.02 409.918 67.5867 410.465 66.72C411.012 65.8533 411.285 64.6133 411.285 63C411.285 61.3867 411.012 60.1467 410.465 59.28C409.918 58.4133 409.125 57.98 408.085 57.98C407.058 57.98 406.265 58.4133 405.705 59.28C405.158 60.1467 404.885 61.3867 404.885 63C404.885 64.6133 405.158 65.8533 405.705 66.72C406.265 67.5867 407.058 68.02 408.085 68.02ZM426.303 59.74C427.663 59.74 428.836 60.2533 429.823 61.28C430.796 62.2933 431.283 63.5333 431.283 65C431.283 66.48 430.796 67.7267 429.823 68.74C428.849 69.7533 427.676 70.26 426.303 70.26C424.796 70.26 423.629 69.7 422.803 68.58V74H420.643V60H422.803V61.44C423.616 60.3067 424.783 59.74 426.303 59.74ZM423.703 67.3C424.303 67.9 425.056 68.2 425.963 68.2C426.869 68.2 427.623 67.9 428.223 67.3C428.823 66.6867 429.123 65.92 429.123 65C429.123 64.08 428.823 63.32 428.223 62.72C427.623 62.1067 426.869 61.8 425.963 61.8C425.056 61.8 424.303 62.1067 423.703 62.72C423.103 63.32 422.803 64.08 422.803 65C422.803 65.9067 423.103 66.6733 423.703 67.3ZM437.03 67.28L439.59 60H441.89L438.05 70.32C437.583 71.5867 436.93 72.5333 436.09 73.16C435.25 73.7867 434.277 74.0667 433.17 74V71.98C434.45 72.06 435.337 71.42 435.83 70.06L435.89 69.92L431.69 60H433.99L437.03 67.28ZM447.49 70.26C445.97 70.26 444.717 69.7667 443.73 68.78C442.77 67.78 442.29 66.5067 442.29 64.96C442.29 63.28 442.543 61.9733 443.05 61.04C443.543 60.12 444.57 59.2733 446.13 58.5C446.183 58.4733 446.27 58.4333 446.39 58.38C446.523 58.3133 446.663 58.2467 446.81 58.18C446.957 58.1133 447.103 58.0467 447.25 57.98C447.81 57.7267 448.157 57.5667 448.29 57.5C448.37 57.46 448.603 57.3133 448.99 57.06C449.457 56.7267 449.77 56.2533 449.93 55.64L451.69 56.66C451.623 57.3933 451.163 58.0667 450.31 58.68C450.163 58.8133 449.89 58.9733 449.49 59.16L448.63 59.56L447.63 59.98C446.763 60.3267 446.123 60.68 445.71 61.04C445.297 61.4 445.01 61.86 444.85 62.42C445.65 61.5133 446.737 61.06 448.11 61.06C449.283 61.06 450.303 61.48 451.17 62.32C452.05 63.16 452.49 64.2467 452.49 65.58C452.49 66.94 452.023 68.06 451.09 68.94C450.17 69.82 448.97 70.26 447.49 70.26ZM447.47 68.24C448.31 68.24 448.997 67.9933 449.53 67.5C450.063 66.9933 450.33 66.3533 450.33 65.58C450.33 64.7933 450.063 64.1467 449.53 63.64C449.01 63.1333 448.33 62.88 447.49 62.88C446.743 62.88 446.07 63.12 445.47 63.6C444.87 64.0533 444.57 64.68 444.57 65.48C444.57 66.28 444.85 66.94 445.41 67.46C445.97 67.98 446.657 68.24 447.47 68.24ZM454.685 60H462.345V70H460.185V62.08H456.845V65.8C456.845 67.36 456.505 68.48 455.825 69.16C455.145 69.84 454.151 70.12 452.845 70V67.98C453.458 68.0867 453.918 67.96 454.225 67.6C454.531 67.2267 454.685 66.5933 454.685 65.7V60ZM474.522 65.92H466.562C466.722 66.6667 467.082 67.2467 467.642 67.66C468.215 68.0733 468.922 68.28 469.762 68.28C470.895 68.28 471.755 67.8667 472.342 67.04L474.122 68.08C473.148 69.5333 471.688 70.26 469.742 70.26C468.128 70.26 466.815 69.7667 465.802 68.78C464.802 67.78 464.302 66.52 464.302 65C464.302 63.52 464.795 62.2733 465.782 61.26C466.755 60.2467 468.022 59.74 469.582 59.74C471.035 59.74 472.235 60.2533 473.182 61.28C474.128 62.3067 474.602 63.5533 474.602 65.02C474.602 65.2867 474.575 65.5867 474.522 65.92ZM466.542 64.16H472.422C472.275 63.3733 471.942 62.7667 471.422 62.34C470.915 61.9133 470.295 61.7 469.562 61.7C468.762 61.7 468.095 61.92 467.562 62.36C467.028 62.8 466.688 63.4 466.542 64.16ZM483.742 58.6H478.142V56.72H483.742V58.6ZM478.622 66.34L483.742 60H485.402V70H483.282V63.64L478.162 70H476.502V60H478.622V66.34Z" fill="#3E62AC"/>
</svg>
