<svg width="259" height="60" viewBox="0 0 259 60" fill="none" xmlns="http://www.w3.org/2000/svg">
<rect width="259" height="60" rx="4" fill="#3E62AC"/>
<path d="M44.2395 35.234C42.3435 35.234 40.7715 34.61 39.5235 33.362C38.2755 32.09 37.6515 30.536 37.6515 28.7C37.6515 26.852 38.2755 25.304 39.5235 24.056C40.7595 22.796 42.3315 22.166 44.2395 22.166C45.3795 22.166 46.4295 22.436 47.3895 22.976C48.3615 23.516 49.1175 24.248 49.6575 25.172L47.8575 26.216C47.5215 25.592 47.0295 25.1 46.3815 24.74C45.7455 24.368 45.0315 24.182 44.2395 24.182C42.9075 24.182 41.8155 24.608 40.9635 25.46C40.1355 26.3 39.7215 27.38 39.7215 28.7C39.7215 30.02 40.1355 31.1 40.9635 31.94C41.8155 32.792 42.9075 33.218 44.2395 33.218C45.0315 33.218 45.7515 33.038 46.3995 32.678C47.0475 32.306 47.5335 31.808 47.8575 31.184L49.6575 32.21C49.1415 33.122 48.3915 33.86 47.4075 34.424C46.4595 34.964 45.4035 35.234 44.2395 35.234ZM55.1911 30.41L59.2951 35H56.9731L53.2831 30.842V35H51.3391V26H53.2831V29.978L56.7751 26H59.1511L55.1911 30.41ZM67.01 27.278V26H68.954V35H67.01V33.704C66.278 34.724 65.228 35.234 63.86 35.234C62.624 35.234 61.568 34.778 60.692 33.866C59.816 32.954 59.378 31.832 59.378 30.5C59.378 29.168 59.816 28.046 60.692 27.134C61.568 26.222 62.624 25.766 63.86 25.766C65.228 25.766 66.278 26.27 67.01 27.278ZM62.132 32.57C62.672 33.11 63.35 33.38 64.166 33.38C64.982 33.38 65.66 33.11 66.2 32.57C66.74 32.018 67.01 31.328 67.01 30.5C67.01 29.672 66.74 28.988 66.2 28.448C65.66 27.896 64.982 27.62 64.166 27.62C63.35 27.62 62.672 27.896 62.132 28.448C61.592 28.988 61.322 29.672 61.322 30.5C61.322 31.316 61.592 32.006 62.132 32.57ZM76.6919 30.122V26H78.6359V35H76.6919V31.958C75.9839 32.222 75.2279 32.354 74.4239 32.354C73.2839 32.354 72.3959 32.078 71.7599 31.526C71.1239 30.962 70.8059 30.152 70.8059 29.096V26H72.7499V28.916C72.7499 29.996 73.3919 30.536 74.6759 30.536C75.4079 30.536 76.0799 30.398 76.6919 30.122ZM88.0335 27.278V26H89.9775V35H88.0335V33.704C87.3015 34.724 86.2515 35.234 84.8835 35.234C83.6475 35.234 82.5915 34.778 81.7155 33.866C80.8395 32.954 80.4015 31.832 80.4015 30.5C80.4015 29.168 80.8395 28.046 81.7155 27.134C82.5915 26.222 83.6475 25.766 84.8835 25.766C86.2515 25.766 87.3015 26.27 88.0335 27.278ZM83.1555 32.57C83.6955 33.11 84.3735 33.38 85.1895 33.38C86.0055 33.38 86.6835 33.11 87.2235 32.57C87.7635 32.018 88.0335 31.328 88.0335 30.5C88.0335 29.672 87.7635 28.988 87.2235 28.448C86.6835 27.896 86.0055 27.62 85.1895 27.62C84.3735 27.62 83.6955 27.896 83.1555 28.448C82.6155 28.988 82.3455 29.672 82.3455 30.5C82.3455 31.316 82.6155 32.006 83.1555 32.57ZM91.2894 26H99.1194V27.872H96.1854V35H94.2414V27.872H91.2894V26ZM102.379 29.06H104.359C105.331 29.06 106.117 29.336 106.717 29.888C107.329 30.428 107.635 31.142 107.635 32.03C107.635 32.906 107.329 33.62 106.717 34.172C106.117 34.724 105.331 35 104.359 35H100.435V26H102.379V29.06ZM102.379 33.254H104.377C104.761 33.254 105.079 33.14 105.331 32.912C105.595 32.684 105.727 32.39 105.727 32.03C105.727 31.67 105.601 31.376 105.349 31.148C105.097 30.92 104.773 30.806 104.377 30.806H102.379V33.254ZM113.724 26H121.734V35H119.79V27.836H115.668V35H113.724V26ZM129.083 25.766C130.307 25.766 131.363 26.228 132.251 27.152C133.127 28.064 133.565 29.18 133.565 30.5C133.565 31.832 133.127 32.954 132.251 33.866C131.375 34.778 130.319 35.234 129.083 35.234C127.727 35.234 126.677 34.73 125.933 33.722V38.6H123.989V26H125.933V27.296C126.665 26.276 127.715 25.766 129.083 25.766ZM126.743 32.57C127.283 33.11 127.961 33.38 128.777 33.38C129.593 33.38 130.271 33.11 130.811 32.57C131.351 32.018 131.621 31.328 131.621 30.5C131.621 29.672 131.351 28.988 130.811 28.448C130.271 27.896 129.593 27.62 128.777 27.62C127.961 27.62 127.283 27.896 126.743 28.448C126.203 28.988 125.933 29.672 125.933 30.5C125.933 31.316 126.203 32.006 126.743 32.57ZM137.235 31.706L141.843 26H143.337V35H141.429V29.276L136.821 35H135.327V26H137.235V31.706ZM152.793 26H154.773V35H152.883V29.078L150.291 33.2H150.057L147.483 29.096V35H145.593V26H147.573L150.183 30.158L152.793 26ZM165.713 31.328H158.549C158.693 32 159.017 32.522 159.521 32.894C160.037 33.266 160.673 33.452 161.429 33.452C162.449 33.452 163.223 33.08 163.751 32.336L165.353 33.272C164.477 34.58 163.163 35.234 161.411 35.234C159.959 35.234 158.777 34.79 157.865 33.902C156.965 33.002 156.515 31.868 156.515 30.5C156.515 29.168 156.959 28.046 157.847 27.134C158.723 26.222 159.863 25.766 161.267 25.766C162.575 25.766 163.655 26.228 164.507 27.152C165.359 28.076 165.785 29.198 165.785 30.518C165.785 30.758 165.761 31.028 165.713 31.328ZM158.531 29.744H163.823C163.691 29.036 163.391 28.49 162.923 28.106C162.467 27.722 161.909 27.53 161.249 27.53C160.529 27.53 159.929 27.728 159.449 28.124C158.969 28.52 158.663 29.06 158.531 29.744ZM172.589 25.766C173.813 25.766 174.869 26.228 175.757 27.152C176.633 28.064 177.071 29.18 177.071 30.5C177.071 31.832 176.633 32.954 175.757 33.866C174.881 34.778 173.825 35.234 172.589 35.234C171.233 35.234 170.183 34.73 169.439 33.722V38.6H167.495V26H169.439V27.296C170.171 26.276 171.221 25.766 172.589 25.766ZM170.249 32.57C170.789 33.11 171.467 33.38 172.283 33.38C173.099 33.38 173.777 33.11 174.317 32.57C174.857 32.018 175.127 31.328 175.127 30.5C175.127 29.672 174.857 28.988 174.317 28.448C173.777 27.896 173.099 27.62 172.283 27.62C171.467 27.62 170.789 27.896 170.249 28.448C169.709 28.988 169.439 29.672 169.439 30.5C169.439 31.316 169.709 32.006 170.249 32.57ZM190.461 27.278V26H192.405V35H190.461V33.704C189.729 34.724 188.679 35.234 187.311 35.234C186.075 35.234 185.019 34.778 184.143 33.866C183.267 32.954 182.829 31.832 182.829 30.5C182.829 29.168 183.267 28.046 184.143 27.134C185.019 26.222 186.075 25.766 187.311 25.766C188.679 25.766 189.729 26.27 190.461 27.278ZM185.583 32.57C186.123 33.11 186.801 33.38 187.617 33.38C188.433 33.38 189.111 33.11 189.651 32.57C190.191 32.018 190.461 31.328 190.461 30.5C190.461 29.672 190.191 28.988 189.651 28.448C189.111 27.896 188.433 27.62 187.617 27.62C186.801 27.62 186.123 27.896 185.583 28.448C185.043 28.988 184.773 29.672 184.773 30.5C184.773 31.316 185.043 32.006 185.583 32.57ZM198.523 30.41L202.627 35H200.305L196.615 30.842V35H194.671V26H196.615V29.978L200.107 26H202.483L198.523 30.41ZM202.981 26H210.811V27.872H207.877V35H205.933V27.872H202.981V26ZM218.903 27.278V26H220.847V35H218.903V33.704C218.171 34.724 217.121 35.234 215.753 35.234C214.517 35.234 213.461 34.778 212.585 33.866C211.709 32.954 211.271 31.832 211.271 30.5C211.271 29.168 211.709 28.046 212.585 27.134C213.461 26.222 214.517 25.766 215.753 25.766C217.121 25.766 218.171 26.27 218.903 27.278ZM214.025 32.57C214.565 33.11 215.243 33.38 216.059 33.38C216.875 33.38 217.553 33.11 218.093 32.57C218.633 32.018 218.903 31.328 218.903 30.5C218.903 29.672 218.633 28.988 218.093 28.448C217.553 27.896 216.875 27.62 216.059 27.62C215.243 27.62 214.565 27.896 214.025 28.448C213.485 28.988 213.215 29.672 213.215 30.5C213.215 31.316 213.485 32.006 214.025 32.57Z" fill="white"/>
<rect x="0.5" y="0.5" width="258" height="59" rx="3.5" stroke="white" stroke-opacity="0.2"/>
</svg>
