<svg width="210" height="60" viewBox="0 0 210 60" fill="none" xmlns="http://www.w3.org/2000/svg">
<rect width="210" height="60" rx="4" fill="#3E62AC"/>
<rect x="0.5" y="0.5" width="209" height="59" rx="3.5" stroke="white" stroke-opacity="0.2"/>
<path d="M40.4345 27.26H43.1345C44.2985 27.26 45.2645 27.626 46.0325 28.358C46.8005 29.09 47.1845 30.014 47.1845 31.13C47.1845 32.246 46.8005 33.17 46.0325 33.902C45.2645 34.634 44.2985 35 43.1345 35H38.3645V22.4H46.1045V24.38H40.4345V27.26ZM40.4345 33.056H43.1345C43.7105 33.056 44.1845 32.882 44.5565 32.534C44.9285 32.174 45.1145 31.706 45.1145 31.13C45.1145 30.554 44.9285 30.092 44.5565 29.744C44.1845 29.384 43.7105 29.204 43.1345 29.204H40.4345V33.056ZM56.3818 33.866C55.4698 34.778 54.3478 35.234 53.0158 35.234C51.6838 35.234 50.5618 34.778 49.6498 33.866C48.7258 32.942 48.2638 31.82 48.2638 30.5C48.2638 29.18 48.7258 28.058 49.6498 27.134C50.5618 26.222 51.6838 25.766 53.0158 25.766C54.3478 25.766 55.4698 26.222 56.3818 27.134C57.3058 28.058 57.7678 29.18 57.7678 30.5C57.7678 31.82 57.3058 32.942 56.3818 33.866ZM50.2078 30.5C50.2078 31.316 50.4778 31.994 51.0178 32.534C51.5578 33.074 52.2238 33.344 53.0158 33.344C53.8078 33.344 54.4738 33.074 55.0138 32.534C55.5538 31.994 55.8238 31.316 55.8238 30.5C55.8238 29.684 55.5538 29.006 55.0138 28.466C54.4738 27.926 53.8078 27.656 53.0158 27.656C52.2238 27.656 51.5578 27.926 51.0178 28.466C50.4778 29.006 50.2078 29.684 50.2078 30.5ZM59.9639 26H66.8579V35H64.9139V27.872H61.9079V31.22C61.9079 32.624 61.6019 33.632 60.9899 34.244C60.3779 34.856 59.4839 35.108 58.3079 35V33.182C58.8599 33.278 59.2739 33.164 59.5499 32.84C59.8259 32.504 59.9639 31.934 59.9639 31.13V26ZM71.0673 29.06H73.0473C74.0193 29.06 74.8053 29.336 75.4053 29.888C76.0173 30.428 76.3233 31.142 76.3233 32.03C76.3233 32.906 76.0173 33.62 75.4053 34.172C74.8053 34.724 74.0193 35 73.0473 35H69.1233V26H71.0673V29.06ZM71.0673 33.254H73.0653C73.4493 33.254 73.7673 33.14 74.0193 32.912C74.2833 32.684 74.4153 32.39 74.4153 32.03C74.4153 31.67 74.2893 31.376 74.0373 31.148C73.7853 30.92 73.4613 30.806 73.0653 30.806H71.0673V33.254ZM88.5683 33.164V26H90.5123V35H77.9123V26H79.8563V33.164H83.2403V26H85.1843V33.164H88.5683ZM101.46 31.328H94.2958C94.4398 32 94.7638 32.522 95.2678 32.894C95.7838 33.266 96.4198 33.452 97.1758 33.452C98.1958 33.452 98.9698 33.08 99.4978 32.336L101.1 33.272C100.224 34.58 98.9098 35.234 97.1578 35.234C95.7058 35.234 94.5238 34.79 93.6118 33.902C92.7118 33.002 92.2618 31.868 92.2618 30.5C92.2618 29.168 92.7058 28.046 93.5938 27.134C94.4698 26.222 95.6098 25.766 97.0138 25.766C98.3218 25.766 99.4018 26.228 100.254 27.152C101.106 28.076 101.532 29.198 101.532 30.518C101.532 30.758 101.508 31.028 101.46 31.328ZM94.2778 29.744H99.5698C99.4378 29.036 99.1378 28.49 98.6698 28.106C98.2138 27.722 97.6558 27.53 96.9958 27.53C96.2758 27.53 95.6758 27.728 95.1958 28.124C94.7158 28.52 94.4098 29.06 94.2778 29.744ZM115.356 33.866C114.444 34.778 113.322 35.234 111.99 35.234C110.658 35.234 109.536 34.778 108.624 33.866C107.7 32.942 107.238 31.82 107.238 30.5C107.238 29.18 107.7 28.058 108.624 27.134C109.536 26.222 110.658 25.766 111.99 25.766C113.322 25.766 114.444 26.222 115.356 27.134C116.28 28.058 116.742 29.18 116.742 30.5C116.742 31.82 116.28 32.942 115.356 33.866ZM109.182 30.5C109.182 31.316 109.452 31.994 109.992 32.534C110.532 33.074 111.198 33.344 111.99 33.344C112.782 33.344 113.448 33.074 113.988 32.534C114.528 31.994 114.798 31.316 114.798 30.5C114.798 29.684 114.528 29.006 113.988 28.466C113.448 27.926 112.782 27.656 111.99 27.656C111.198 27.656 110.532 27.926 109.992 28.466C109.452 29.006 109.182 29.684 109.182 30.5ZM117.195 26H125.025V27.872H122.091V35H120.147V27.872H117.195V26ZM131.953 30.122V26H133.897V35H131.953V31.958C131.245 32.222 130.489 32.354 129.685 32.354C128.545 32.354 127.657 32.078 127.021 31.526C126.385 30.962 126.067 30.152 126.067 29.096V26H128.011V28.916C128.011 29.996 128.653 30.536 129.937 30.536C130.669 30.536 131.341 30.398 131.953 30.122ZM144.86 31.328H137.696C137.84 32 138.164 32.522 138.668 32.894C139.184 33.266 139.82 33.452 140.576 33.452C141.596 33.452 142.37 33.08 142.898 32.336L144.5 33.272C143.624 34.58 142.31 35.234 140.558 35.234C139.106 35.234 137.924 34.79 137.012 33.902C136.112 33.002 135.662 31.868 135.662 30.5C135.662 29.168 136.106 28.046 136.994 27.134C137.87 26.222 139.01 25.766 140.414 25.766C141.722 25.766 142.802 26.228 143.654 27.152C144.506 28.076 144.932 29.198 144.932 30.518C144.932 30.758 144.908 31.028 144.86 31.328ZM137.678 29.744H142.97C142.838 29.036 142.538 28.49 142.07 28.106C141.614 27.722 141.056 27.53 140.396 27.53C139.676 27.53 139.076 27.728 138.596 28.124C138.116 28.52 137.81 29.06 137.678 29.744ZM145.337 26H153.167V27.872H150.233V35H148.289V27.872H145.337V26ZM161.745 33.866C160.833 34.778 159.711 35.234 158.379 35.234C157.047 35.234 155.925 34.778 155.013 33.866C154.089 32.942 153.627 31.82 153.627 30.5C153.627 29.18 154.089 28.058 155.013 27.134C155.925 26.222 157.047 25.766 158.379 25.766C159.711 25.766 160.833 26.222 161.745 27.134C162.669 28.058 163.131 29.18 163.131 30.5C163.131 31.82 162.669 32.942 161.745 33.866ZM155.571 30.5C155.571 31.316 155.841 31.994 156.381 32.534C156.921 33.074 157.587 33.344 158.379 33.344C159.171 33.344 159.837 33.074 160.377 32.534C160.917 31.994 161.187 31.316 161.187 30.5C161.187 29.684 160.917 29.006 160.377 28.466C159.837 27.926 159.171 27.656 158.379 27.656C157.587 27.656 156.921 27.926 156.381 28.466C155.841 29.006 155.571 29.684 155.571 30.5ZM171.117 30.374C172.005 30.794 172.449 31.484 172.449 32.444C172.449 33.212 172.185 33.83 171.657 34.298C171.141 34.766 170.421 35 169.497 35H164.889V26H169.137C170.049 26 170.763 26.228 171.279 26.684C171.795 27.14 172.053 27.74 172.053 28.484C172.053 29.336 171.741 29.966 171.117 30.374ZM168.993 27.656H166.743V29.654H168.993C169.785 29.654 170.181 29.318 170.181 28.646C170.181 27.986 169.785 27.656 168.993 27.656ZM166.743 33.308H169.317C170.133 33.308 170.541 32.954 170.541 32.246C170.541 31.934 170.433 31.694 170.217 31.526C170.001 31.346 169.701 31.256 169.317 31.256H166.743V33.308Z" fill="white"/>
</svg>
