<svg width="88" height="88" viewBox="0 0 88 88" fill="none" xmlns="http://www.w3.org/2000/svg">
<path d="M66.1133 60.9292L81.8177 76.6298L76.6293 81.8182L60.9287 66.1138C55.0867 70.797 47.8203 73.3441 40.333 73.3335C22.117 73.3335 7.33301 58.5495 7.33301 40.3335C7.33301 22.1175 22.117 7.3335 40.333 7.3335C58.549 7.3335 73.333 22.1175 73.333 40.3335C73.3437 47.8208 70.7965 55.0872 66.1133 60.9292ZM58.758 58.2085C63.4114 53.4231 66.0102 47.0084 65.9997 40.3335C65.9997 26.1508 54.512 14.6668 40.333 14.6668C26.1503 14.6668 14.6663 26.1508 14.6663 40.3335C14.6663 54.5125 26.1503 66.0002 40.333 66.0002C47.0079 66.0107 53.4226 63.4119 58.208 58.7585L58.758 58.2085ZM44.6523 26.3122C43.5711 26.8006 42.6246 27.544 41.8939 28.4786C41.1632 29.4133 40.6701 30.5113 40.4571 31.6784C40.244 32.8455 40.3173 34.0468 40.6707 35.1794C41.024 36.3119 41.6469 37.3418 42.4858 38.1807C43.3247 39.0196 44.3546 39.6425 45.4871 39.9958C46.6197 40.3492 47.821 40.4225 48.9881 40.2094C50.1552 39.9964 51.2532 39.5033 52.1879 38.7726C53.1225 38.0419 53.866 37.0954 54.3543 36.0142C55.3179 39.1441 55.2063 42.5065 54.0371 45.5656C52.8679 48.6248 50.7086 51.2046 47.903 52.894C45.0975 54.5835 41.8073 55.2853 38.5566 54.8878C35.3059 54.4903 32.2817 53.0162 29.966 50.7005C27.6503 48.3848 26.1762 45.3606 25.7787 42.1099C25.3812 38.8592 26.083 35.569 27.7725 32.7635C29.4619 29.9579 32.0417 27.7986 35.1009 26.6294C38.16 25.4603 41.5224 25.3486 44.6523 26.3122Z" fill="#A6B7D9"/>
</svg>
