<svg width="17" height="17" viewBox="0 0 17 17" fill="none" xmlns="http://www.w3.org/2000/svg">
<path d="M8.5 14.8044L12.0063 11.2982C12.6996 10.6047 13.1718 9.72124 13.3631 8.75943C13.5544 7.79762 13.4562 6.80069 13.0809 5.89471C12.7056 4.98872 12.07 4.21436 11.2547 3.66956C10.4393 3.12475 9.48065 2.83396 8.5 2.83396C7.51936 2.83396 6.56074 3.12475 5.74535 3.66956C4.92997 4.21436 4.29445 4.98872 3.91915 5.89471C3.54385 6.80069 3.44563 7.79762 3.63691 8.75943C3.82818 9.72124 4.30037 10.6047 4.99375 11.2982L8.5 14.8044ZM8.5 16.8076L3.99217 12.2998C3.10062 11.4082 2.49347 10.2723 2.24749 9.03566C2.00152 7.79904 2.12777 6.51724 2.61028 5.35237C3.09279 4.18749 3.90989 3.19186 4.95825 2.49137C6.00661 1.79088 7.23915 1.41699 8.5 1.41699C9.76085 1.41699 10.9934 1.79088 12.0418 2.49137C13.0901 3.19186 13.9072 4.18749 14.3897 5.35237C14.8722 6.51724 14.9985 7.79904 14.7525 9.03566C14.5065 10.2723 13.8994 11.4082 13.0078 12.2998L8.5 16.8076ZM8.5 9.2086C8.87573 9.2086 9.23606 9.05935 9.50174 8.79367C9.76741 8.52799 9.91667 8.16766 9.91667 7.79194C9.91667 7.41621 9.76741 7.05588 9.50174 6.7902C9.23606 6.52453 8.87573 6.37527 8.5 6.37527C8.12428 6.37527 7.76394 6.52453 7.49827 6.7902C7.23259 7.05588 7.08334 7.41621 7.08334 7.79194C7.08334 8.16766 7.23259 8.52799 7.49827 8.79367C7.76394 9.05935 8.12428 9.2086 8.5 9.2086ZM8.5 10.6253C7.74856 10.6253 7.02789 10.3268 6.49653 9.79541C5.96518 9.26405 5.66667 8.54338 5.66667 7.79194C5.66667 7.04049 5.96518 6.31982 6.49653 5.78847C7.02789 5.25711 7.74856 4.9586 8.5 4.9586C9.25145 4.9586 9.97212 5.25711 10.5035 5.78847C11.0348 6.31982 11.3333 7.04049 11.3333 7.79194C11.3333 8.54338 11.0348 9.26405 10.5035 9.79541C9.97212 10.3268 9.25145 10.6253 8.5 10.6253Z" fill="#3E62AC"/>
</svg>
