<svg width="32" height="32" viewBox="0 0 32 32" fill="none" xmlns="http://www.w3.org/2000/svg">
<path d="M28.7243 8.66367C29.3337 11.0397 29.3337 15.9997 29.3337 15.9997C29.3337 15.9997 29.3337 20.9597 28.7243 23.3357C28.3857 24.649 27.395 25.6823 26.1403 26.0317C23.8617 26.6663 16.0003 26.6663 16.0003 26.6663C16.0003 26.6663 8.14299 26.6663 5.86033 26.0317C4.60033 25.677 3.61099 24.645 3.27633 23.3357C2.66699 20.9597 2.66699 15.9997 2.66699 15.9997C2.66699 15.9997 2.66699 11.0397 3.27633 8.66367C3.61499 7.35034 4.60566 6.31701 5.86033 5.96767C8.14299 5.33301 16.0003 5.33301 16.0003 5.33301C16.0003 5.33301 23.8617 5.33301 26.1403 5.96767C27.4003 6.32234 28.3897 7.35434 28.7243 8.66367ZM13.3337 20.6663L21.3337 15.9997L13.3337 11.333V20.6663Z" fill="#FB0000"/>
</svg>
